<svg width="21" height="22" viewBox="0 0 21 22" fill="none" xmlns="http://www.w3.org/2000/svg">
<path d="M16.25 0C16.8023 0 17.25 0.447715 17.25 1V1.71191L17.3096 1.73145C17.9806 1.96358 18.5578 2.31387 19.0488 2.84473C19.8264 3.68557 20.1723 4.7479 20.3379 6.0791C20.5002 7.3839 20.5 9.05684 20.5 11.1904V11.8096C20.5 13.9432 20.5002 15.6161 20.3379 16.9209C20.1723 18.2521 19.8264 19.3144 19.0488 20.1553C18.2633 21.0045 17.2574 21.3903 15.999 21.5732C14.781 21.7503 13.2244 21.75 11.2607 21.75H9.23926C7.27556 21.75 5.71901 21.7503 4.50098 21.5732C3.24258 21.3903 2.23672 21.0045 1.45117 20.1553C0.673585 19.3144 0.327703 18.2521 0.162109 16.9209C-0.000158846 15.6161 -1.09037e-05 13.9431 0 11.8096V11.1904C-1.09037e-05 9.05686 -0.000158846 7.3839 0.162109 6.0791C0.327703 4.7479 0.673585 3.68557 1.45117 2.84473C1.94221 2.31387 2.51944 1.96358 3.19043 1.73145L3.25 1.71191V1C3.25 0.447715 3.69772 0 4.25 0C4.80228 0 5.25 0.447715 5.25 1V1.34375C5.23596 1.34494 5.22198 1.34644 5.20801 1.34766C5.09932 1.35719 4.99281 1.36642 4.88867 1.37793C4.99286 1.36672 5.09935 1.35712 5.20801 1.34766C6.30549 1.25142 7.63662 1.24999 9.23926 1.25H11.2607C12.8629 1.24999 14.1937 1.25151 15.291 1.34766C15.3997 1.35712 15.5062 1.36672 15.6104 1.37793C15.5062 1.36643 15.3997 1.35718 15.291 1.34766C15.2774 1.34647 15.2637 1.34492 15.25 1.34375V1C15.25 0.447715 15.6977 0 16.25 0ZM7.25 11C6.69772 11 6.25 11.4477 6.25 12C6.25 12.5523 6.69772 13 7.25 13V16C7.25 16.5523 7.69772 17 8.25 17C8.80228 17 9.25 16.5523 9.25 16V12.4004C9.25 11.6272 8.62281 11 7.84961 11H7.25ZM11.25 11C10.6977 11 10.25 11.4477 10.25 12C10.25 12.5523 10.6977 13 11.25 13H11.9258L10.9424 15.6523C10.7503 16.1701 11.0145 16.7454 11.5322 16.9375C12.0499 17.1294 12.6253 16.8653 12.8174 16.3477L14.1719 12.6973C14.5086 11.7898 13.768 11 12.9707 11H11.25ZM4.25 6C3.69772 6 3.25 6.44772 3.25 7C3.25 7.55228 3.69772 8 4.25 8H16.25C16.8023 8 17.25 7.55228 17.25 7C17.25 6.44772 16.8023 6 16.25 6H4.25ZM3.27637 1.70312C3.34434 1.68086 3.41353 1.66067 3.4834 1.64062C3.41352 1.66065 3.34435 1.68087 3.27637 1.70312ZM16.4219 1.49902C16.7022 1.55351 16.969 1.62011 17.2227 1.70312C17.1547 1.68088 17.0855 1.66064 17.0156 1.64062C16.9832 1.63132 16.9508 1.62115 16.918 1.6123C16.8951 1.60616 16.8717 1.60163 16.8486 1.5957C16.7367 1.56688 16.6225 1.54059 16.5059 1.5166C16.4779 1.51088 16.4501 1.50449 16.4219 1.49902ZM3.99316 1.5166C4.02108 1.51086 4.04896 1.5045 4.07715 1.49902C4.04896 1.50449 4.02108 1.51087 3.99316 1.5166Z" fill="white"/>
</svg>
