<svg width="16" height="16" viewBox="0 0 16 16" fill="none" xmlns="http://www.w3.org/2000/svg">
<path d="M14.6 1.45996H1.40002C1.16132 1.45996 0.932403 1.55478 0.763621 1.72356C0.594838 1.89235 0.500017 2.12127 0.500017 2.35996V14.3599C0.498951 14.5315 0.547422 14.6998 0.639614 14.8446C0.731806 14.9893 0.863803 15.1044 1.01977 15.1759C1.13902 15.2309 1.26871 15.2596 1.40002 15.2599C1.61133 15.2597 1.8157 15.1845 1.97677 15.0477L4.51176 12.8599H14.6C14.8387 12.8599 15.0676 12.7651 15.2364 12.5963C15.4052 12.4276 15.5 12.1986 15.5 11.9599V2.35996C15.5 2.12127 15.4052 1.89235 15.2364 1.72356C15.0676 1.55478 14.8387 1.45996 14.6 1.45996ZM14.9 11.9599C14.9 12.0395 14.8684 12.1158 14.8121 12.1721C14.7559 12.2283 14.6796 12.2599 14.6 12.2599H4.40001C4.32761 12.2604 4.25782 12.2871 4.20351 12.3349L1.59202 14.5894C1.54827 14.6259 1.49507 14.6491 1.43861 14.6564C1.38216 14.6638 1.32479 14.6549 1.27319 14.6308C1.2216 14.6067 1.17792 14.5685 1.14726 14.5205C1.11659 14.4726 1.10021 14.4169 1.10002 14.3599V2.35996C1.10002 2.2804 1.13162 2.20409 1.18788 2.14783C1.24415 2.09157 1.32045 2.05996 1.40002 2.05996H14.6C14.6796 2.05996 14.7559 2.09157 14.8121 2.14783C14.8684 2.20409 14.9 2.2804 14.9 2.35996V11.9599ZM10.7 5.95996C10.7 6.03952 10.6684 6.11583 10.6121 6.17209C10.5559 6.22835 10.4796 6.25996 10.4 6.25996H5.60001C5.52045 6.25996 5.44414 6.22835 5.38788 6.17209C5.33162 6.11583 5.30001 6.03952 5.30001 5.95996C5.30001 5.88039 5.33162 5.80408 5.38788 5.74782C5.44414 5.69156 5.52045 5.65996 5.60001 5.65996H10.4C10.4796 5.65996 10.5559 5.69156 10.6121 5.74782C10.6684 5.80408 10.7 5.88039 10.7 5.95996ZM10.7 8.35995C10.7 8.43952 10.6684 8.51582 10.6121 8.57208C10.5559 8.62835 10.4796 8.65995 10.4 8.65995H5.60001C5.52045 8.65995 5.44414 8.62835 5.38788 8.57208C5.33162 8.51582 5.30001 8.43952 5.30001 8.35995C5.30001 8.28039 5.33162 8.20408 5.38788 8.14782C5.44414 8.09156 5.52045 8.05995 5.60001 8.05995H10.4C10.4796 8.05995 10.5559 8.09156 10.6121 8.14782C10.6684 8.20408 10.7 8.28039 10.7 8.35995Z" fill="#B3B3B3" stroke="#B3B3B3" stroke-width="0.46875"/>
</svg>
