<svg width="18" height="19" viewBox="0 0 18 19" fill="none" xmlns="http://www.w3.org/2000/svg">
<g opacity="0.6">
<path fill-rule="evenodd" clip-rule="evenodd" d="M2.4375 9C2.4375 8.68934 2.68934 8.4375 3 8.4375L14.9997 8.4375C15.3104 8.4375 15.5622 8.68934 15.5622 9C15.5622 9.31066 15.3104 9.5625 14.9997 9.5625H3C2.68934 9.5625 2.4375 9.31066 2.4375 9ZM4.8998 14.25C4.8998 13.9393 5.15164 13.6875 5.4623 13.6875L15 13.6875C15.3107 13.6875 15.5625 13.9393 15.5625 14.25C15.5625 14.5607 15.3107 14.8125 15 14.8125L5.4623 14.8125C5.15164 14.8125 4.8998 14.5607 4.8998 14.25ZM9.1664 3.75C9.1664 3.43934 9.41824 3.1875 9.7289 3.1875L15 3.1875C15.3107 3.1875 15.5625 3.43934 15.5625 3.75C15.5625 4.06066 15.3107 4.3125 15 4.3125L9.7289 4.3125C9.41824 4.3125 9.1664 4.06066 9.1664 3.75Z" fill="#080808" stroke="black" stroke-linecap="round"/>
</g>
</svg>
