<svg width="24" height="24" viewBox="0 0 24 24" fill="none" xmlns="http://www.w3.org/2000/svg">
    <path
        d="M12.3076 2.00001C14.4979 1.99999 16.2183 2.00012 17.5615 2.18067C18.9382 2.36576 20.0305 2.75314 20.8887 3.61134C21.7469 4.46953 22.1343 5.56183 22.3193 6.93848C22.4999 8.28175 22.5 10.0021 22.5 12.1924V12.3076C22.5 14.4979 22.4999 16.2183 22.3193 17.5615C22.1343 18.9382 21.7469 20.0305 20.8887 20.8887C20.0305 21.7469 18.9382 22.1343 17.5615 22.3193C16.2183 22.4999 14.4979 22.5 12.3076 22.5H12.1924C10.0021 22.5 8.28175 22.4999 6.93848 22.3193C5.56183 22.1343 4.46953 21.7469 3.61134 20.8887C2.75314 20.0305 2.36576 18.9382 2.18067 17.5615C2.00012 16.2183 1.99999 14.4979 2.00001 12.3076V12.1924C1.99999 10.0021 2.00012 8.28175 2.18067 6.93848C2.36576 5.56183 2.75314 4.46953 3.61134 3.61134C4.46953 2.75314 5.56183 2.36576 6.93848 2.18067C8.28175 2.00012 10.0021 1.99999 12.1924 2.00001H12.3076ZM8.25001 11.25C7.69772 11.25 7.25001 11.6977 7.25001 12.25C7.25001 12.8023 7.69772 13.25 8.25001 13.25H16.25C16.8023 13.25 17.25 12.8023 17.25 12.25C17.25 11.6977 16.8023 11.25 16.25 11.25H8.25001Z"
        fill="white" />
</svg>