<svg width="16" height="16" viewBox="0 0 16 16" fill="none" xmlns="http://www.w3.org/2000/svg">
<g clip-path="url(#clip0_2921_781)">
<path d="M6.08826 3.35488C6.42933 3.68244 6.61169 4.07754 6.61169 4.49627C6.61169 4.91163 6.43271 5.31011 6.09164 5.65118L5.02791 6.71828C5.07519 6.80608 5.11909 6.89388 5.16299 6.9783C5.22378 7.09987 5.28118 7.21468 5.34197 7.31261C5.97683 8.31218 6.80417 9.22057 7.87465 10.0918C8.4082 10.5139 8.85733 10.7976 9.31321 11.0036C9.56648 10.7267 9.82988 10.47 10.0831 10.2201C10.1777 10.1256 10.2756 10.031 10.3702 9.93647C11.0793 9.22732 11.9979 9.22732 12.707 9.93647L13.6289 10.8584C13.7336 10.9631 13.8416 11.0711 13.9497 11.1724C14.1591 11.375 14.3752 11.5878 14.5778 11.8073C14.902 12.1348 15.0742 12.5266 15.0742 12.9385C15.0742 13.3505 14.902 13.749 14.5778 14.0867C14.5744 14.0901 14.5744 14.0901 14.5711 14.0934L13.4128 15.2416C12.9805 15.6738 12.4537 15.9204 11.8425 15.9744C10.8565 16.0554 9.93794 15.765 9.33685 15.5421C7.86114 14.9951 6.49349 14.1779 5.02791 12.9588C3.26179 11.4797 1.86713 9.70009 0.884447 7.66719C0.516364 6.8905 0.080743 5.85379 0.00645089 4.69551C0.00307393 4.62459 -0.000303023 4.5503 -0.00030302 4.48276C-0.000302986 3.7027 0.27998 3.04758 0.83717 2.53429C0.843924 2.53091 0.847301 2.52416 0.854055 2.52078C1.0668 2.34518 1.25928 2.14257 1.46528 1.92982C1.60373 1.78461 1.74894 1.63603 1.9009 1.49082C2.24872 1.15651 2.65395 0.980909 3.06931 0.980909C3.48804 0.980909 3.8899 1.15989 4.22759 1.50095L6.08826 3.35488ZM2.53238 2.14594C2.53238 2.14932 2.529 2.14932 2.53238 2.14594C2.39055 2.27764 2.26223 2.41272 2.1204 2.55793C1.91103 2.77743 1.69153 3.0003 1.44501 3.20967C1.08031 3.55074 0.908085 3.95259 0.908085 4.47939C0.908085 4.53004 0.908085 4.58407 0.911462 4.63472C0.975623 5.63767 1.36735 6.56969 1.70166 7.26871C2.62693 9.18004 3.94055 10.8584 5.60537 12.253C6.99328 13.4046 8.2765 14.1745 9.65428 14.6844C10.4951 14.9985 11.1503 15.1133 11.7682 15.0626C12.1633 15.0289 12.4909 14.8769 12.7712 14.5966L13.9227 13.4451C14.078 13.2796 14.1625 13.104 14.1625 12.9318C14.1625 12.719 14.0341 12.5468 13.9261 12.4388C13.9227 12.4354 13.9193 12.432 13.9159 12.4286C13.7235 12.2226 13.5242 12.0268 13.3115 11.8208C13.2034 11.7161 13.0954 11.608 12.9839 11.5L12.062 10.5781C11.7041 10.2201 11.3731 10.2201 11.0152 10.5781C10.9172 10.676 10.8193 10.7706 10.7248 10.8685C10.4343 11.1522 10.1642 11.4223 9.90079 11.7161C9.89404 11.7229 9.89066 11.7296 9.88391 11.733C9.5935 12.0234 9.30984 11.9694 9.11735 11.9086C9.10722 11.9052 9.09709 11.9018 9.08696 11.8985C8.50613 11.6587 7.95907 11.321 7.30733 10.8077L7.30395 10.8043C6.1558 9.87231 5.26092 8.88963 4.57541 7.80564C4.48761 7.66719 4.41669 7.52536 4.34916 7.39028C4.28837 7.26871 4.23096 7.1539 4.17018 7.05597C4.16343 7.04246 4.15329 7.02895 4.14654 7.01545C4.08913 6.90063 4.06212 6.79257 4.06212 6.68113C4.06212 6.40085 4.23772 6.22525 4.29513 6.16784L5.45003 5.01294C5.56484 4.89812 5.7033 4.71577 5.7033 4.50303C5.7033 4.29366 5.5716 4.12143 5.45678 4.01675C5.45341 4.01337 5.45341 4.01337 5.45003 4.01L3.58935 2.14932C3.24491 1.8015 2.89033 1.8015 2.53238 2.14594Z" fill="#B3B3B3"/>
<path d="M12.1933 7.35327C12.0447 6.46852 11.626 5.66481 10.9844 5.0232C10.3427 4.38158 9.53905 3.96622 8.65429 3.81426C8.43142 3.77712 8.27608 3.58463 8.27608 3.36513C8.27608 3.33812 8.27946 3.31448 8.28283 3.28747C8.32336 3.03757 8.55974 2.87211 8.80963 2.91263C9.88011 3.09498 10.856 3.60152 11.6294 4.37483C12.4027 5.14814 12.9092 6.12407 13.0916 7.19455C13.1321 7.44444 12.9666 7.67745 12.7201 7.72135C12.4736 7.76525 12.2338 7.60316 12.1933 7.35327Z" fill="#B3B3B3"/>
<path d="M8.94206 0.0181338C10.7048 0.318678 12.3088 1.1494 13.5853 2.42587C14.8618 3.70234 15.6925 5.30637 15.9931 7.06911C16.037 7.31563 15.8681 7.54863 15.6216 7.59253C15.3717 7.63306 15.1387 7.46759 15.0948 7.2177C14.828 5.64406 14.0817 4.20887 12.9437 3.06748C11.8023 1.92609 10.3671 1.18317 8.79348 0.916391C8.5706 0.879244 8.41527 0.686762 8.41527 0.467262C8.41527 0.440247 8.41864 0.416608 8.42202 0.389593C8.45917 0.143079 8.69555 -0.0257662 8.94206 0.0181338Z" fill="#B3B3B3"/>
</g>
<defs>
<clipPath id="clip0_2921_781">
<rect width="16" height="16" fill="white" transform="translate(6.99383e-07 16) rotate(-90)"/>
</clipPath>
</defs>
</svg>
