<svg width="24" height="24" viewBox="0 0 24 24" fill="none" xmlns="http://www.w3.org/2000/svg">
<path d="M12.0674 0C14.6319 -1.56326e-05 16.6461 0.000482504 18.2188 0.211914C19.8304 0.428601 21.1095 0.881023 22.1143 1.88574C23.119 2.89046 23.5714 4.16955 23.7881 5.78125C23.9995 7.35393 24 9.36814 24 11.9326V12.0674C24 14.6319 23.9995 16.6461 23.7881 18.2187C23.5714 19.8304 23.119 21.1095 22.1143 22.1143C21.1095 23.119 19.8304 23.5714 18.2188 23.7881C16.6461 23.9995 14.6319 24 12.0674 24H11.9326C9.36814 24 7.35393 23.9995 5.78125 23.7881C4.16955 23.5714 2.89046 23.119 1.88574 22.1143C0.881023 21.1095 0.428601 19.8304 0.211914 18.2188C0.000482504 16.6461 -1.56326e-05 14.6319 0 12.0674L0 11.9326C-1.56326e-05 9.36815 0.000482541 7.35393 0.211914 5.78125C0.428601 4.16955 0.881023 2.89046 1.88574 1.88574C2.89046 0.881023 4.16955 0.428601 5.78125 0.211914C7.35393 0.000482541 9.36815 -1.56326e-05 11.9326 0L12.0674 0ZM12 6.14648C11.3535 6.14656 10.8291 6.67085 10.8291 7.31738V10.8291H7.31738C6.67085 10.8291 6.14656 11.3535 6.14648 12C6.14648 12.6466 6.67081 13.1709 7.31738 13.1709H10.8291V16.6826C10.8291 17.3291 11.3535 17.8534 12 17.8535C12.6466 17.8535 13.1709 17.3292 13.1709 16.6826V13.1709H16.6826C17.3292 13.1709 17.8535 12.6466 17.8535 12C17.8534 11.3535 17.3291 10.8291 16.6826 10.8291H13.1709V7.31738C13.1709 6.67081 12.6466 6.14648 12 6.14648Z" fill="white"/>
</svg>
