<svg width="50" height="50" viewBox="0 0 50 50" fill="none" xmlns="http://www.w3.org/2000/svg">
<path d="M24.9994 4.16602C13.4947 4.16602 4.16602 13.0901 4.16602 24.0967C4.16602 29.3849 6.31879 34.19 9.83037 37.7558C10.6035 38.541 11.1197 39.6136 10.9114 40.7176C10.5676 42.5227 9.78839 44.2064 8.6475 45.6097C11.6493 46.168 14.7705 45.6653 17.4472 44.2418C18.3935 43.7386 18.8666 43.487 19.2004 43.436C19.5343 43.385 20.0125 43.4748 20.969 43.6545C22.2978 43.904 23.6466 44.0291 24.9994 44.0273C36.504 44.0273 45.8327 35.1032 45.8327 24.0967C45.8327 22.2444 45.5685 20.4511 45.0742 18.7494" stroke="#141B34" stroke-width="1.5" stroke-linecap="round" stroke-linejoin="round"/>
<path d="M29.166 12.4993C29.166 12.4993 31.2493 12.4993 33.3327 16.666C33.3327 16.666 39.9503 6.24935 45.8327 4.16602" stroke="#163A2D" stroke-width="1.5" stroke-linecap="round" stroke-linejoin="round"/>
<path d="M24.99 24.999H25.0087M33.314 24.999H33.3327M16.666 24.999H16.6847" stroke="#141B34" stroke-width="2" stroke-linecap="round" stroke-linejoin="round"/>
</svg>
