<svg width="24" height="24" viewBox="0 0 24 24" fill="none" xmlns="http://www.w3.org/2000/svg">
<path d="M6.66673 22.7678H17.3339C19.4133 22.7678 20.4479 21.7131 20.4479 19.6238V10.5034C20.4479 9.2074 20.3073 8.64512 19.5037 7.8214L13.9589 2.18655C13.196 1.40269 12.5729 1.23212 11.438 1.23212H6.66673C4.59759 1.23212 3.55273 2.29669 3.55273 4.3864V19.6238C3.55273 21.723 4.59759 22.7678 6.66673 22.7678ZM6.74688 21.1508C5.71231 21.1508 5.16973 20.598 5.16973 19.5938V4.4164C5.16973 3.42212 5.71231 2.84912 6.75716 2.84912H11.2169V8.6854C11.2169 9.95097 11.8597 10.5737 13.1052 10.5737H18.8309V19.5938C18.8309 20.598 18.2982 21.1508 17.2537 21.1508H6.74688ZM13.286 9.05655C12.8943 9.05655 12.7332 8.89626 12.7332 8.49426V3.16069L18.5189 9.05697L13.286 9.05655Z" fill="#CDCDCD"/>
<path fill-rule="evenodd" clip-rule="evenodd" d="M20.4478 10.5034C20.4478 9.2074 20.3072 8.64512 19.5037 7.8214L13.9588 2.18655C13.1959 1.40269 12.5728 1.23212 11.4379 1.23212L11.2168 2.84912V8.6854C11.2168 9.95097 11.8597 10.5737 13.1051 10.5737H18.8308L20.4478 10.5034ZM12.7331 8.49426C12.7331 8.89626 12.8942 9.05655 13.2859 9.05655L18.5188 9.05697L12.7331 3.16069V8.49426Z" fill="#224737"/>
</svg>
