<svg xmlns="http://www.w3.org/2000/svg" width="50" height="50" viewBox="0 0 50 50" fill="none">
    <path
        d="M18.75 20.8334L25.5375 25.9251C25.958 26.2405 26.4822 26.3852 27.0049 26.3304C27.5277 26.2755 28.0104 26.025 28.3562 25.6292L41.6667 10.4167"
        stroke="#224737" stroke-width="2.08333" stroke-linecap="round" />
    <path
        d="M43.75 24.9997C43.7501 28.9174 42.5229 32.7368 40.241 35.9214C37.959 39.1059 34.7368 41.4957 31.0269 42.755C27.3171 44.0143 23.3059 44.0799 19.5569 42.9425C15.8078 41.8052 12.5092 39.5221 10.1243 36.4139C7.73942 33.3056 6.38805 29.5284 6.26002 25.6128C6.13198 21.6971 7.23371 17.8397 9.41047 14.5823C11.5872 11.3249 14.7296 8.83117 18.3964 7.45136C22.0631 6.07156 26.07 5.87498 29.8542 6.88924"
        stroke="#224737" stroke-width="2.08333" stroke-linecap="round" />
</svg>