<svg width="50" height="50" viewBox="0 0 50 50" fill="none" xmlns="http://www.w3.org/2000/svg">
<path d="M27.084 37.5003C27.084 37.5003 29.1673 37.5003 31.2507 41.667C31.2507 41.667 37.8683 31.2503 43.7507 29.167" stroke="#324535" stroke-width="1.5" stroke-linecap="round" stroke-linejoin="round"/>
<path d="M22.918 45.834H22.3498C15.5556 45.834 12.1585 45.834 9.79936 44.1718C9.12342 43.6956 8.52334 43.1308 8.01734 42.4946C6.2513 40.2743 6.2513 37.077 6.2513 30.6825V25.3794C6.2513 19.2062 6.2513 16.1195 7.22825 13.6543C8.79883 9.69111 12.1203 6.56499 16.3312 5.0868C18.9505 4.16732 22.2301 4.16731 28.7892 4.16731C32.5372 4.16731 34.4113 4.16731 35.908 4.69273C38.3142 5.53741 40.2122 7.32377 41.1097 9.58844C41.668 10.9971 41.668 12.7609 41.668 16.2885V20.834" stroke="#224737" stroke-width="1.5" stroke-linecap="round" stroke-linejoin="round"/>
<path d="M6.25065 25C6.25065 21.1647 9.35978 18.0556 13.1951 18.0556C14.5821 18.0556 16.2174 18.2986 17.566 17.9372C18.7642 17.6162 19.7002 16.6802 20.0212 15.482C20.3826 14.1334 20.1395 12.4982 20.1395 11.1111C20.1395 7.2758 23.2487 4.16667 27.084 4.16667" stroke="#224737" stroke-width="1.5" stroke-linecap="round" stroke-linejoin="round"/>
</svg>
