<svg width="145" height="145" viewBox="0 0 145 145" fill="none" xmlns="http://www.w3.org/2000/svg">
<g opacity="0.2">
<path d="M78.543 108.75C78.543 108.75 84.5846 108.75 90.6263 120.833C90.6263 120.833 109.817 90.6247 126.876 84.583" stroke="#324535" stroke-width="1.5" stroke-linecap="round" stroke-linejoin="round"/>
<path d="M66.459 132.917H64.8113C45.1081 132.917 35.2566 132.917 28.415 128.096C26.4548 126.715 24.7146 125.077 23.2472 123.232C18.1256 116.793 18.1256 107.521 18.1256 88.9771V73.5983C18.1256 55.6958 18.1256 46.7446 20.9588 39.5954C25.5135 28.1022 35.1458 19.0364 47.3574 14.7497C54.9534 12.0832 64.4641 12.0832 83.4855 12.0832C94.3549 12.0832 99.7896 12.0832 104.13 13.6069C111.108 16.0565 116.612 21.2369 119.215 27.8044C120.834 31.8897 120.834 37.0047 120.834 47.2347V60.4165" stroke="#224737" stroke-width="1.5" stroke-linecap="round" stroke-linejoin="round"/>
<path d="M18.1263 72.5C18.1263 61.3776 27.1428 52.3611 38.2652 52.3611C42.2876 52.3611 47.0299 53.0659 50.9408 52.018C54.4157 51.0869 57.1299 48.3727 58.061 44.8978C59.1089 40.9869 58.4041 36.2447 58.4041 32.2222C58.4041 21.0998 67.4206 12.0833 78.543 12.0833" stroke="#224737" stroke-width="1.5" stroke-linecap="round" stroke-linejoin="round"/>
</g>
</svg>
