<svg width="130" height="130" viewBox="0 0 130 130" fill="none" xmlns="http://www.w3.org/2000/svg">
<path d="M73.125 83.9583C73.125 78.8515 73.125 76.298 74.7115 74.7115C76.298 73.125 78.8515 73.125 83.9583 73.125H108.333C113.44 73.125 115.994 73.125 117.58 74.7115C119.167 76.298 119.167 78.8515 119.167 83.9583V108.333C119.167 113.44 119.167 115.994 117.58 117.58C115.994 119.167 113.44 119.167 108.333 119.167H83.9583C78.8515 119.167 76.298 119.167 74.7115 117.58C73.125 115.994 73.125 113.44 73.125 108.333V83.9583Z" fill="white" stroke="white" stroke-width="0.902778" stroke-linecap="round" stroke-linejoin="round"/>
<path d="M10.834 21.6668C10.834 16.5599 10.834 14.0065 12.4205 12.42C14.007 10.8335 16.5604 10.8335 21.6673 10.8335H46.0423C51.1492 10.8335 53.7026 10.8335 55.2891 12.42C56.8757 14.0065 56.8757 16.5599 56.8757 21.6668V46.0418C56.8757 51.1487 56.8757 53.7022 55.2891 55.2887C53.7026 56.8752 51.1492 56.8752 46.0423 56.8752H21.6673C16.5604 56.8752 14.007 56.8752 12.4205 55.2887C10.834 53.7022 10.834 51.1487 10.834 46.0418V21.6668Z" fill="white" stroke="white" stroke-width="0.902778" stroke-linecap="round" stroke-linejoin="round"/>
<path d="M10.834 83.9583C10.834 78.8515 10.834 76.298 12.4205 74.7115C14.007 73.125 16.5604 73.125 21.6673 73.125H46.0423C51.1492 73.125 53.7026 73.125 55.2891 74.7115C56.8757 76.298 56.8757 78.8515 56.8757 83.9583V108.333C56.8757 113.44 56.8757 115.994 55.2891 117.58C53.7026 119.167 51.1492 119.167 46.0423 119.167H21.6673C16.5604 119.167 14.007 119.167 12.4205 117.58C10.834 115.994 10.834 113.44 10.834 108.333V83.9583Z" fill="white" stroke="white" stroke-width="0.902778" stroke-linecap="round" stroke-linejoin="round"/>
<path d="M73.125 21.6668C73.125 16.5599 73.125 14.0065 74.7115 12.42C76.298 10.8335 78.8515 10.8335 83.9583 10.8335H108.333C113.44 10.8335 115.994 10.8335 117.58 12.42C119.167 14.0065 119.167 16.5599 119.167 21.6668V46.0418C119.167 51.1487 119.167 53.7022 117.58 55.2887C115.994 56.8752 113.44 56.8752 108.333 56.8752H83.9583C78.8515 56.8752 76.298 56.8752 74.7115 55.2887C73.125 53.7022 73.125 51.1487 73.125 46.0418V21.6668Z" fill="white" stroke="white" stroke-width="0.902778" stroke-linecap="round" stroke-linejoin="round"/>
</svg>
