<svg width="24" height="24" viewBox="0 0 24 24" fill="none" xmlns="http://www.w3.org/2000/svg">
<rect width="24" height="24" rx="4" fill="#163A2D"/>
<path d="M16.5 11.625V16.125C16.5 16.2244 16.4605 16.3198 16.3902 16.3902C16.3198 16.4605 16.2245 16.5 16.125 16.5H13.5C13.4005 16.5 13.3052 16.4605 13.2348 16.3902C13.1645 16.3198 13.125 16.2244 13.125 16.125V13.6875C13.125 13.6378 13.1052 13.5901 13.0701 13.5549C13.0349 13.5197 12.9872 13.5 12.9375 13.5H11.0625C11.0128 13.5 10.9651 13.5197 10.9299 13.5549C10.8948 13.5901 10.875 13.6378 10.875 13.6875V16.125C10.875 16.2244 10.8355 16.3198 10.7652 16.3902C10.6948 16.4605 10.5995 16.5 10.5 16.5H7.875C7.77554 16.5 7.68016 16.4605 7.60984 16.3902C7.53951 16.3198 7.5 16.2244 7.5 16.125V11.625C7.50009 11.4261 7.57917 11.2354 7.71984 11.0948L11.4698 7.34483C11.6105 7.20429 11.8012 7.12534 12 7.12534C12.1988 7.12534 12.3895 7.20429 12.5302 7.34483L16.2802 11.0948C16.4208 11.2354 16.4999 11.4261 16.5 11.625Z" fill="white"/>
</svg>
