<svg width="50" height="50" viewBox="0 0 50 50" fill="none" xmlns="http://www.w3.org/2000/svg">
<path d="M45.8327 23.9583V12.7374C45.8327 11.0896 45.8327 10.2656 45.4283 9.41597C45.1976 8.93136 44.6723 8.27216 44.2515 7.93914C43.5135 7.35524 42.8977 7.21418 41.666 6.93208C39.75 6.49322 37.6367 6.25 35.416 6.25C31.4221 6.25 27.7755 7.03674 24.9994 8.33333C22.2232 9.62992 18.5766 10.4167 14.5827 10.4167C12.362 10.4167 10.2487 10.1734 8.33268 9.73459C6.33275 9.27652 4.16602 10.6857 4.16602 12.7374V35.1792C4.16602 36.8271 4.16602 37.651 4.57042 38.5007C4.80107 38.9853 5.32636 39.6445 5.74723 39.9775C6.48517 40.5614 7.10101 40.7025 8.33268 40.9846C10.2487 41.4234 12.362 41.6667 14.5827 41.6667C17.6428 41.6667 20.499 41.2048 22.916 40.4056" stroke="#163A2D" stroke-width="1.5" stroke-linecap="round"/>
<path d="M29.166 39.5833C29.166 39.5833 31.2493 39.5833 33.3327 43.75C33.3327 43.75 39.9503 33.3333 45.8327 31.25" stroke="#163A2D" stroke-width="1.5" stroke-linecap="round" stroke-linejoin="round"/>
<path d="M30.2077 23.9583C30.2077 26.8348 27.8758 29.1667 24.9993 29.1667C22.1229 29.1667 19.791 26.8348 19.791 23.9583C19.791 21.0819 22.1229 18.75 24.9993 18.75C27.8758 18.75 30.2077 21.0819 30.2077 23.9583Z" stroke="#163A2D" stroke-width="1.5"/>
<path d="M11.457 26.0417L11.457 26.0605" stroke="#163A2D" stroke-width="2" stroke-linecap="round" stroke-linejoin="round"/>
<path d="M38.541 21.8586L38.541 21.8774" stroke="#163A2D" stroke-width="2" stroke-linecap="round" stroke-linejoin="round"/>
</svg>
