<svg width="24" height="24" viewBox="0 0 24 24" fill="none" xmlns="http://www.w3.org/2000/svg">
<path fill-rule="evenodd" clip-rule="evenodd" d="M8.87936 5.63605C8.87936 5.08376 9.32707 4.63605 9.87936 4.63605H18.3646C18.9169 4.63605 19.3646 5.08376 19.3646 5.63605V14.1213C19.3646 14.6736 18.9169 15.1213 18.3646 15.1213C17.8124 15.1213 17.3646 14.6736 17.3646 14.1213V8.05026L6.34383 19.0711C5.9533 19.4616 5.32014 19.4616 4.92961 19.0711C4.53909 18.6806 4.53909 18.0474 4.92961 17.6569L15.9504 6.63605H9.87936C9.32707 6.63605 8.87936 6.18833 8.87936 5.63605Z" fill="#CDCDCD"/>
<path d="M8.87891 5.63605C8.87891 5.08376 9.32662 4.63605 9.87891 4.63605H18.3642C18.9165 4.63605 19.3642 5.08376 19.3642 5.63605V14.1213C19.3642 14.6736 18.9165 15.1213 18.3642 15.1213C17.8119 15.1213 17.3642 14.6736 17.3642 14.1213V8.05026L17.3209 7.54988C17.2762 7.03292 16.8435 6.63605 16.3246 6.63605H15.95H9.87891C9.32662 6.63605 8.87891 6.18833 8.87891 5.63605Z" fill="#224737"/>
</svg>
