<svg width="50" height="50" viewBox="0 0 50 50" fill="none" xmlns="http://www.w3.org/2000/svg">
<g opacity="0.4">
<path d="M27.0772 4.23229C27.3023 3.13063 28.3778 2.42003 29.4795 2.64513C38.008 4.38771 44.8198 10.8386 47.1382 19.1728C47.2091 19.4258 47.3359 19.8785 47.3757 20.2282C47.4237 20.65 47.4425 21.6137 46.618 22.3589C45.7742 23.1216 44.7932 22.9803 44.392 22.8876C44.0481 22.8082 43.6711 22.6556 43.4211 22.5544L39.4274 20.7451C38.4037 20.2799 37.2925 19.1728 38.416 18.0493L41.0868 15.3785C38.3648 10.9407 33.9003 7.70443 28.6643 6.6346C27.5627 6.40951 26.8521 5.33396 27.0772 4.23229Z" fill="#141B34"/>
<path d="M10.5726 29.2536C11.5963 29.7188 12.7075 30.8259 11.584 31.9494L8.91322 34.6202C11.6352 39.058 16.0997 42.2943 21.3357 43.3641C22.4373 43.5892 23.1479 44.6647 22.9228 45.7664C22.6977 46.8681 21.6222 47.5787 20.5205 47.3536C11.992 45.611 5.18022 39.1602 2.86181 30.8259C2.79092 30.5729 2.66413 30.1202 2.62432 29.7706C2.57629 29.3487 2.55748 28.385 3.38196 27.6398C4.22585 26.8771 5.20682 27.0184 5.60801 27.1111C5.95189 27.1905 6.32888 27.3431 6.57895 27.4443L10.5726 29.2536Z" fill="#141B34"/>
<path d="M2.86181 30.8259C5.18022 39.1602 11.992 45.611 20.5205 47.3536C21.6222 47.5787 22.6977 46.8681 22.9228 45.7664C23.1479 44.6647 22.4373 43.5892 21.3357 43.3641C16.0997 42.2943 11.6352 39.058 8.91322 34.6202L11.584 31.9494C12.7075 30.8259 11.5963 29.7188 10.5726 29.2536L6.57895 27.4443C6.32888 27.3431 5.95189 27.1905 5.60801 27.1111C5.20682 27.0184 4.22585 26.8771 3.38196 27.6398C2.55748 28.385 2.57629 29.3487 2.62432 29.7706C2.66413 30.1202 2.79092 30.5729 2.86181 30.8259ZM2.86181 30.8259C2.86811 30.8484 2.85618 30.8056 2.86181 30.8259ZM29.4795 2.64513C28.3778 2.42003 27.3023 3.13063 27.0772 4.23229C26.8521 5.33396 27.5627 6.40951 28.6643 6.6346C33.9003 7.70443 38.3648 10.9407 41.0868 15.3785L38.416 18.0493C37.2925 19.1728 38.4037 20.2799 39.4274 20.7451L43.4211 22.5544C43.6711 22.6556 44.0481 22.8082 44.392 22.8876C44.7932 22.9803 45.7741 23.1216 46.618 22.3589C47.4425 21.6137 47.4237 20.65 47.3757 20.2282C47.3359 19.8785 47.2091 19.4258 47.1382 19.1728C44.8198 10.8386 38.008 4.38771 29.4795 2.64513Z" stroke="#FBF8F6" stroke-width="3" stroke-linecap="round"/>
</g>
<path d="M20.7451 10.5707C20.2799 11.5944 19.1728 12.7056 18.0493 11.582L15.3785 8.91127C10.9407 11.6333 7.70443 16.0978 6.6346 21.3337C6.40951 22.4354 5.33396 23.146 4.23229 22.9209C3.13063 22.6958 2.42003 21.6202 2.64513 20.5186C4.38771 11.99 10.8386 5.17827 19.1728 2.85985C19.4258 2.78897 19.8785 2.66218 20.2282 2.62237C20.65 2.57434 21.6137 2.55553 22.3589 3.38001C23.1216 4.22389 22.9803 5.20486 22.8876 5.60606C22.8082 5.94993 22.6556 6.32693 22.5544 6.57699L20.7451 10.5707Z" fill="#141B34"/>
<path d="M45.7664 27.0752C46.8681 27.3003 47.5787 28.3759 47.3536 29.4775C45.611 38.0061 39.1602 44.8178 30.8259 47.1362C30.5729 47.2071 30.1202 47.3339 29.7705 47.3737C29.3487 47.4218 28.385 47.4406 27.6398 46.6161C26.8771 45.7722 27.0184 44.7912 27.1111 44.39C27.1905 44.0462 27.3431 43.6692 27.4443 43.4191L29.2536 39.4254C29.7188 38.4017 30.8259 37.2905 31.9494 38.4141L34.6202 41.0848C39.058 38.3628 42.2943 33.8983 43.3641 28.6624C43.5892 27.5607 44.6647 26.8501 45.7664 27.0752Z" fill="#141B34"/>
<path d="M20.7451 10.5707C20.2799 11.5944 19.1728 12.7056 18.0493 11.582L15.3785 8.91127C10.9407 11.6333 7.70443 16.0978 6.6346 21.3337C6.40951 22.4354 5.33396 23.146 4.23229 22.9209C3.13063 22.6958 2.42003 21.6202 2.64513 20.5186C4.38771 11.99 10.8386 5.17827 19.1728 2.85985C19.4258 2.78897 19.8785 2.66218 20.2282 2.62237C20.65 2.57434 21.6137 2.55553 22.3589 3.38001C23.1216 4.22389 22.9803 5.20486 22.8876 5.60606C22.8082 5.94993 22.6556 6.32693 22.5544 6.57699L20.7451 10.5707Z" stroke="#FBF8F6" stroke-width="3" stroke-linecap="round"/>
<path d="M45.7664 27.0752C46.8681 27.3003 47.5787 28.3759 47.3536 29.4775C45.611 38.0061 39.1602 44.8178 30.8259 47.1362C30.5729 47.2071 30.1202 47.3339 29.7705 47.3737C29.3487 47.4218 28.385 47.4406 27.6398 46.6161C26.8771 45.7722 27.0184 44.7912 27.1111 44.39C27.1905 44.0462 27.3431 43.6692 27.4443 43.4191L29.2536 39.4254C29.7188 38.4017 30.8259 37.2905 31.9494 38.4141L34.6202 41.0848C39.058 38.3628 42.2943 33.8983 43.3641 28.6624C43.5892 27.5607 44.6647 26.8501 45.7664 27.0752Z" stroke="#FBF8F6" stroke-width="3" stroke-linecap="round"/>
<path opacity="0.4" fill-rule="evenodd" clip-rule="evenodd" d="M24.9993 13.541C26.1499 13.541 27.0827 14.4738 27.0827 15.6243V16.9286C27.8473 17.1254 28.5695 17.428 29.2326 17.8198L30.1553 16.8971C30.9689 16.0835 32.288 16.0835 33.1016 16.8971C33.9152 17.7107 33.9152 19.0298 33.1016 19.8434L32.1789 20.7661C32.5708 21.4292 32.8733 22.1514 33.0701 22.916H34.3743C35.5249 22.916 36.4577 23.8488 36.4577 24.9993C36.4577 26.1499 35.5249 27.0827 34.3743 27.0827H33.0701C32.8733 27.8473 32.5707 28.5695 32.1789 29.2326L33.1016 30.1554C33.9152 30.9689 33.9152 32.288 33.1016 33.1016C32.288 33.9152 30.9689 33.9152 30.1553 33.1016L29.2326 32.1789C28.5695 32.5708 27.8473 32.8733 27.0827 33.0701V34.3743C27.0827 35.5249 26.1499 36.4577 24.9993 36.4577C23.8488 36.4577 22.916 35.5249 22.916 34.3743V33.0701C22.1514 32.8733 21.4292 32.5708 20.7661 32.1789L19.8434 33.1016C19.0298 33.9152 17.7107 33.9152 16.8971 33.1016C16.0835 32.288 16.0835 30.9689 16.8971 30.1554L17.8198 29.2326C17.428 28.5695 17.1254 27.8473 16.9286 27.0827H15.6243C14.4738 27.0827 13.541 26.1499 13.541 24.9993C13.541 23.8488 14.4738 22.916 15.6243 22.916L16.9286 22.916C17.1254 22.1514 17.4279 21.4292 17.8198 20.7661L16.8971 19.8434C16.0835 19.0298 16.0835 17.7107 16.8971 16.8971C17.7107 16.0835 19.0298 16.0835 19.8434 16.8971L20.7661 17.8198C21.4292 17.428 22.1514 17.1254 22.916 16.9286V15.6243C22.916 14.4738 23.8488 13.541 24.9993 13.541ZM22.0489 22.0572C22.0503 22.0559 22.0517 22.0545 22.0531 22.0531C22.0545 22.0517 22.0558 22.0503 22.0572 22.0489C22.8109 21.2973 23.8509 20.8327 24.9993 20.8327C26.1478 20.8327 27.1878 21.2973 27.9415 22.0489C27.9428 22.0503 27.9442 22.0517 27.9456 22.0531C27.947 22.0545 27.9484 22.0559 27.9498 22.0572C28.7014 22.8109 29.166 23.8509 29.166 24.9993C29.166 27.3005 27.3005 29.166 24.9993 29.166C22.6982 29.166 20.8327 27.3005 20.8327 24.9993C20.8327 23.8509 21.2973 22.8109 22.0489 22.0572Z" fill="#141B34" stroke="#FBF8F6" stroke-width="2" stroke-linecap="round" stroke-linejoin="round"/>
</svg>
