<svg width="30" height="30" viewBox="0 0 30 30" fill="none" xmlns="http://www.w3.org/2000/svg">
<path opacity="0.4" fill-rule="evenodd" clip-rule="evenodd" d="M11.7169 3.57753C11.953 4.20952 11.6321 4.91329 11.0002 5.14945C10.7657 5.23706 10.5351 5.33264 10.3086 5.43586C9.69473 5.71568 8.97021 5.44486 8.69039 4.83096C8.41056 4.21705 8.68138 3.49254 9.29529 3.21272C9.57345 3.08593 9.8568 2.96849 10.145 2.86082C10.7769 2.62466 11.4807 2.94554 11.7169 3.57753ZM7.46796 5.65135C7.9292 6.14373 7.90394 6.9168 7.41156 7.37803C7.24222 7.53665 7.07801 7.70069 6.91921 7.86985C6.45744 8.36174 5.68436 8.38617 5.19247 7.92441C4.70058 7.46265 4.67615 6.68956 5.13791 6.19767C5.33253 5.99036 5.53376 5.78934 5.74128 5.59495C6.23367 5.13371 7.00673 5.15896 7.46796 5.65135ZM4.34216 9.19492C4.95708 9.47251 5.23055 10.196 4.95297 10.8109C4.85927 11.0185 4.77198 11.2296 4.69134 11.4439C4.45372 12.0753 3.74921 12.3946 3.11777 12.1569C2.48633 11.9193 2.16707 11.2148 2.40469 10.5834C2.50378 10.32 2.61104 10.0607 2.72614 9.80573C3.00373 9.19081 3.72724 8.91734 4.34216 9.19492ZM2.82798 13.6312C3.50232 13.6522 4.032 14.2158 4.01105 14.8902C4.00392 15.1195 4.00391 15.35 4.01104 15.5787C4.03209 16.2531 3.50248 16.8168 2.82814 16.8378C2.1538 16.8589 1.59008 16.3293 1.56904 15.6549C1.56031 15.3752 1.56034 15.0941 1.56903 14.8143C1.58998 14.1399 2.15363 13.6103 2.82798 13.6312ZM26.422 18.2829C27.054 18.5191 27.3748 19.2229 27.1386 19.8548C27.023 20.1643 26.8961 20.4683 26.7584 20.7662C26.4754 21.3786 25.7495 21.6457 25.137 21.3627C24.5246 21.0797 24.2575 20.3538 24.5405 19.7413C24.6526 19.4988 24.7559 19.2514 24.85 18.9996C25.0862 18.3676 25.79 18.0467 26.422 18.2829ZM3.12422 18.3337C3.75516 18.0947 4.46034 18.4125 4.69929 19.0434C4.78137 19.2601 4.87026 19.4736 4.96571 19.6834C5.24506 20.2975 4.97369 21.0218 4.35957 21.3012C3.74545 21.5805 3.02115 21.3091 2.74179 20.695C2.62455 20.4373 2.51533 20.1751 2.41446 19.9087C2.17551 19.2778 2.49328 18.5726 3.12422 18.3337ZM24.3781 22.4921C24.8724 22.9514 24.9008 23.7243 24.4416 24.2186C24.2265 24.4501 24.0032 24.6738 23.7722 24.8894C23.2789 25.3496 22.5059 25.3228 22.0456 24.8295C21.5854 24.3362 21.6122 23.5632 22.1055 23.103C22.294 22.9271 22.4762 22.7445 22.6517 22.5556C23.1109 22.0613 23.8839 22.0329 24.3781 22.4921ZM5.21049 22.5653C5.70125 22.1024 6.47439 22.1249 6.93736 22.6156C7.08742 22.7747 7.24227 22.9292 7.40168 23.0789C7.89348 23.5408 7.91777 24.3139 7.45592 24.8057C6.99407 25.2975 6.22097 25.3218 5.72917 24.8599C5.53381 24.6764 5.34405 24.4871 5.16016 24.2922C4.69719 23.8014 4.71973 23.0283 5.21049 22.5653ZM20.8068 25.6561C21.0845 26.2709 20.8111 26.9945 20.1963 27.2722C19.9431 27.3866 19.6857 27.4932 19.4242 27.5917C18.793 27.8298 18.0882 27.511 17.8502 26.8797C17.6122 26.2484 17.931 25.5437 18.5623 25.3057C18.775 25.2254 18.9845 25.1387 19.1906 25.0456C19.8055 24.7679 20.529 25.0412 20.8068 25.6561ZM8.73976 25.664C9.01666 25.0488 9.73987 24.7745 10.3551 25.0514C10.5533 25.1406 10.7547 25.224 10.9591 25.3013C11.5901 25.5401 11.9081 26.2452 11.6693 26.8762C11.4306 27.5072 10.7255 27.8252 10.0945 27.5864C9.84334 27.4914 9.59589 27.3889 9.35238 27.2794C8.73714 27.0025 8.46287 26.2792 8.73976 25.664ZM13.1214 27.1659C13.1447 26.4916 13.7101 25.9639 14.3844 25.9872C14.6384 25.9959 14.8944 25.9959 15.1484 25.9872C15.8227 25.9639 16.3882 26.4916 16.4114 27.1659C16.4347 27.8402 15.9069 28.4056 15.2327 28.4289C14.9225 28.4396 14.6103 28.4396 14.3002 28.4289C13.6259 28.4056 13.0981 27.8402 13.1214 27.1659Z" fill="white"/>
<path fill-rule="evenodd" clip-rule="evenodd" d="M13.7773 2.7841C13.7773 2.10943 14.3243 1.5625 14.9989 1.5625C22.4203 1.5625 28.4365 7.57871 28.4365 15.0001C28.4365 15.6748 27.8896 16.2217 27.2149 16.2217C26.5403 16.2217 25.9933 15.6748 25.9933 15.0001C25.9933 8.92805 21.071 4.0057 14.9989 4.0057C14.3243 4.0057 13.7773 3.45877 13.7773 2.7841Z" fill="white"/>
<path opacity="0.4" d="M15 6.25C15.6904 6.25 16.25 6.80964 16.25 7.5V12.135C16.9709 12.45 17.55 13.0291 17.865 13.75H20C20.6904 13.75 21.25 14.3096 21.25 15C21.25 15.6904 20.6904 16.25 20 16.25H17.865C17.3827 17.3537 16.2814 18.125 15 18.125C13.2741 18.125 11.875 16.7259 11.875 15C11.875 13.7186 12.6463 12.6173 13.75 12.135V7.5C13.75 6.80964 14.3096 6.25 15 6.25Z" fill="white"/>
</svg>
