<svg xmlns="http://www.w3.org/2000/svg" width="50" height="50" viewBox="0 0 50 50" fill="none">
    <path d="M20.834 33.333L8.33398 45.833M20.834 45.833L8.33399 33.333" stroke="#224737"
        stroke-width="2" stroke-linecap="round" />
    <path
        d="M31.25 31.25C31.25 32.9759 32.6491 34.375 34.375 34.375C36.1009 34.375 37.5 32.9759 37.5 31.25C37.5 29.5241 36.1009 28.125 34.375 28.125C32.6491 28.125 31.25 29.5241 31.25 31.25Z"
        stroke="#224737" stroke-width="2" />
    <path
        d="M6.25 26.0417V12.5C10.6348 13.7944 19.9504 15.4723 31.2578 16.2559C37.3441 16.6776 40.3872 16.8885 42.0686 18.7018C43.75 20.5152 43.75 23.437 43.75 29.2804V33.4756C43.75 39.4929 43.75 42.5016 41.7006 44.3745C39.6511 46.2474 36.8581 45.9745 31.2722 45.4287C29.9109 45.2957 28.5096 45.1375 27.0833 44.9505"
        stroke="#224737" stroke-width="2" stroke-linecap="round" stroke-linejoin="round" />
    <path
        d="M36.7204 16.667C37.5072 13.7018 38.2193 8.30912 36.0979 5.63141C34.7533 3.93422 32.7548 4.09728 30.7954 4.26961C20.4956 5.17545 13.2197 7.01555 9.15211 8.26569C7.40308 8.80324 6.25 10.5112 6.25 12.4179"
        stroke="#224737" stroke-width="2" stroke-linejoin="round" />
</svg>