<svg width="307" height="115" viewBox="0 0 307 115" fill="none" xmlns="http://www.w3.org/2000/svg">
<path d="M137.311 66.7451C141.696 66.7451 145.008 67.7166 147.244 69.6595C149.501 71.6025 150.628 74.6318 150.628 78.7475V102.094H145.395L143.985 97.1743H143.735C142.753 98.4277 141.739 99.4619 140.695 100.277C139.649 101.092 138.438 101.697 137.058 102.094C135.702 102.512 134.04 102.721 132.076 102.721C130.009 102.721 128.159 102.345 126.531 101.593C124.9 100.82 123.615 99.6499 122.675 98.0831C121.734 96.5162 121.266 94.5315 121.266 92.1288C121.266 88.5564 122.592 85.8717 125.245 84.0751C127.919 82.2782 131.952 81.2858 137.341 81.098L143.359 80.8785V79.0609C143.359 76.6584 142.794 74.9452 141.666 73.9215C140.558 72.8979 138.992 72.3859 136.964 72.3859C135.231 72.3859 133.55 72.6366 131.92 73.1381C130.289 73.6394 128.702 74.2557 127.157 74.9869L124.774 69.7849C126.466 68.8866 128.39 68.1554 130.542 67.5912C132.713 67.0271 134.97 66.7451 137.311 66.7451ZM143.327 85.5166L138.845 85.6732C135.169 85.7985 132.589 86.4254 131.104 87.5534C129.622 88.6817 128.88 90.2276 128.88 92.1915C128.88 93.9047 129.391 95.1582 130.416 95.9521C131.438 96.725 132.786 97.1116 134.459 97.1116C137.007 97.1116 139.116 96.3908 140.789 94.9493C142.481 93.4869 143.327 91.3454 143.327 88.5249V85.5166Z" fill="white"/>
<path d="M88.9691 67.4053V79.9718C88.9691 81.8103 89.4504 83.1786 90.411 84.077C91.3716 84.9755 92.7493 85.4245 94.5464 85.4245C96.5531 85.4245 98.3908 85.153 100.062 84.6099C101.754 84.0667 103.457 83.3355 105.17 82.4162V67.4053H112.536V102.096H105.17V87.4302C103.437 88.4538 101.63 89.3104 99.7493 89.9999C97.8688 90.6894 95.6652 91.0341 93.1365 91.0341C89.5424 91.0341 86.7228 90.1043 84.6754 88.245C82.6281 86.3855 81.6055 83.7323 81.6055 80.2852V67.4053H88.9691Z" fill="white"/>
<path d="M58.2482 66.7451C62.6338 66.7451 65.9456 67.7166 68.1812 69.6595C70.4382 71.6025 71.5656 74.6318 71.5656 78.7475V102.094H66.3328L64.9229 97.1743H64.6705C63.6907 98.4277 62.6766 99.4619 61.6326 100.277C60.5865 101.092 59.3756 101.697 57.9958 102.094C56.6394 102.512 54.9771 102.721 53.0132 102.721C50.9445 102.721 49.0961 102.345 47.4681 101.593C45.8379 100.82 44.5521 99.6499 43.613 98.0831C42.6717 96.5162 42.2031 94.5315 42.2031 92.1288C42.2031 88.5564 43.5295 85.8717 46.1823 84.0751C48.8565 82.2782 52.8891 81.2858 58.2781 81.098L64.2961 80.8785V79.0609C64.2961 76.6584 63.7313 74.9452 62.6039 73.9215C61.4957 72.8979 59.9297 72.3859 57.9016 72.3859C56.1688 72.3859 54.4872 72.6366 52.8571 73.1381C51.2269 73.6394 49.6395 74.2557 48.0927 74.9869L45.7116 69.7849C47.4039 68.8866 49.3271 68.1554 51.4772 67.5912C53.6507 67.0271 55.9078 66.7451 58.2482 66.7451ZM64.264 85.5166L59.7821 85.6732C56.1067 85.7985 53.5267 86.4254 52.042 87.5534C50.5594 88.6817 49.8171 90.2276 49.8171 92.1915C49.8171 93.9047 50.3283 95.1582 51.3531 95.9521C52.3757 96.725 53.7235 97.1116 55.3965 97.1116C57.9444 97.1116 60.0538 96.3908 61.7268 94.9493C63.419 93.4869 64.264 91.3454 64.264 88.5249V85.5166Z" fill="white"/>
<path d="M32.5289 67.4053V96.3929H37.5433V114.318H30.7426V102.096H6.80034V114.318H0V96.3929H2.8205C4.57541 93.8441 6.03787 91.0026 7.20766 87.8689C8.39864 84.7352 9.31791 81.4342 9.96549 77.9661C10.634 74.4771 11.0518 70.9568 11.2189 67.4053H32.5289ZM25.2271 73.0461H17.5492C17.2985 75.8664 16.8702 78.6764 16.2644 81.4759C15.6585 84.2545 14.8751 86.9184 13.9141 89.4672C12.974 91.9951 11.8457 94.3036 10.5296 96.3929H25.2271V73.0461Z" fill="white"/>
<path d="M284.185 46.4744H275.975L285.657 32.3096C284.342 31.8917 283.109 31.2754 281.96 30.4605C280.833 29.6249 279.913 28.5385 279.203 27.2014C278.493 25.8434 278.137 24.1931 278.137 22.2499C278.137 18.8655 279.348 16.275 281.772 14.4781C284.196 12.6815 287.36 11.7832 291.267 11.7832H306.999V46.4744H299.636V33.0617H292.647L284.185 46.4744ZM285.345 22.3126C285.345 24.0677 286.004 25.4048 287.32 26.3239C288.635 27.2224 290.432 27.6715 292.709 27.6715H299.636V17.3299H291.643C289.45 17.3299 287.852 17.8106 286.849 18.7716C285.846 19.7116 285.345 20.8921 285.345 22.3126Z" fill="white"/>
<path d="M256.436 11.123C260.823 11.123 264.135 12.0945 266.371 14.0375C268.626 15.9804 269.755 19.0097 269.755 23.1254V46.4723H264.52L263.11 41.5522H262.86C261.878 42.8056 260.866 43.8398 259.82 44.6547C258.776 45.4696 257.565 46.0754 256.185 46.4723C254.827 46.8901 253.167 47.0991 251.203 47.0991C249.134 47.0991 247.286 46.723 245.656 45.9708C244.025 45.1979 242.742 44.0279 241.8 42.461C240.861 40.8941 240.391 38.9095 240.391 36.5068C240.391 32.9343 241.717 30.2496 244.372 28.453C247.046 26.6562 251.077 25.6637 256.468 25.4759L262.484 25.2564V23.4388C262.484 21.0363 261.921 19.3232 260.791 18.2995C259.685 17.2758 258.117 16.7639 256.091 16.7639C254.358 16.7639 252.675 17.0146 251.047 17.516C249.417 18.0173 247.829 18.6336 246.282 19.3649L243.901 14.1628C245.593 13.2645 247.515 12.5333 249.667 11.9692C251.84 11.405 254.095 11.123 256.436 11.123ZM262.454 29.8945L257.972 30.0511C254.294 30.1765 251.714 30.8033 250.232 31.9314C248.747 33.0597 248.007 34.6055 248.007 36.5695C248.007 38.2826 248.518 39.5361 249.543 40.33C250.565 41.1029 251.913 41.4895 253.584 41.4895C256.134 41.4895 258.243 40.7688 259.914 39.3273C261.606 37.8648 262.454 35.7234 262.454 32.9028V29.8945Z" fill="white"/>
<path d="M208.042 11.7832V25.7285H224.276V11.7832H231.671V46.4744H224.276V31.4947H208.042V46.4744H200.646V11.7832H208.042Z" fill="white"/>
<path d="M177.815 11.123C181.931 11.123 185.232 12.6272 187.718 15.6358C190.225 18.6441 191.479 23.1149 191.479 29.0484C191.479 32.976 190.893 36.2875 189.725 38.9824C188.574 41.6566 186.956 43.6832 184.866 45.062C182.797 46.4201 180.384 47.0991 177.627 47.0991C175.872 47.0991 174.347 46.8693 173.053 46.4096C171.756 45.95 170.65 45.3547 169.73 44.6234C168.81 43.8713 168.038 43.0564 167.411 42.179H166.973C167.078 43.0147 167.172 43.9444 167.255 44.9681C167.358 45.9708 167.411 46.8901 167.411 47.7259V61.8593H160.016V11.7811H166.031L167.067 16.5758H167.411C168.06 15.5938 168.843 14.6851 169.762 13.8494C170.702 13.0138 171.829 12.3555 173.147 11.875C174.484 11.3738 176.039 11.123 177.815 11.123ZM175.84 17.1399C173.814 17.1399 172.184 17.5473 170.952 18.3622C169.741 19.1561 168.853 20.3573 168.288 21.9659C167.745 23.5747 167.452 25.5908 167.411 28.0142V29.0484C167.411 31.6182 167.672 33.8014 168.194 35.598C168.738 37.3739 169.626 38.7317 170.858 39.6719C172.111 40.5912 173.804 41.0507 175.934 41.0507C177.732 41.0507 179.214 40.5598 180.384 39.578C181.576 38.5961 182.464 37.1963 183.048 35.3787C183.634 33.5611 183.927 31.4196 183.927 28.9543C183.927 25.2147 183.257 22.3107 181.92 20.2424C180.605 18.1741 178.579 17.1399 175.84 17.1399Z" fill="white"/>
<path d="M136.212 11.123C139.304 11.123 141.956 11.7601 144.173 13.0345C146.387 14.309 148.09 16.1163 149.279 18.4561C150.471 20.7961 151.066 23.5956 151.066 26.8547V30.8033H127.907C127.991 34.167 128.889 36.7575 130.603 38.5751C132.336 40.3927 134.76 41.3015 137.872 41.3015C140.087 41.3015 142.072 41.0927 143.826 40.6749C145.604 40.2361 147.431 39.5988 149.311 38.7631V44.7486C147.576 45.5635 145.812 46.1589 144.014 46.535C142.22 46.911 140.067 47.0991 137.56 47.0991C134.154 47.0991 131.157 46.441 128.566 45.1247C125.997 43.7876 123.98 41.8029 122.518 39.1705C121.076 36.5382 120.355 33.2685 120.355 29.3618C120.355 25.4759 121.012 22.1749 122.33 19.459C123.646 16.7429 125.494 14.6746 127.875 13.254C130.258 11.8333 133.037 11.123 136.212 11.123ZM136.212 16.6697C133.893 16.6697 132.013 17.4219 130.571 18.9261C129.15 20.4305 128.316 22.6344 128.064 25.5386H143.858C143.837 23.8044 143.546 22.2688 142.981 20.9317C142.438 19.5946 141.601 18.5502 140.474 17.798C139.368 17.0458 137.945 16.6697 136.212 16.6697Z" fill="white"/>
<path d="M112.317 20.6831C112.317 22.6887 111.701 24.3287 110.469 25.6031C109.256 26.8568 107.585 27.6819 105.454 28.079V28.3295C107.73 28.6222 109.632 29.4264 111.157 30.7427C112.683 32.0588 113.444 33.8869 113.444 36.2269C113.444 38.2116 112.944 39.977 111.94 41.5229C110.958 43.048 109.393 44.2597 107.24 45.1582C105.11 46.0356 102.32 46.4744 98.8733 46.4744H83.1406V11.7832H98.8113C101.4 11.7832 103.71 12.0652 105.736 12.6293C107.784 13.1932 109.392 14.123 110.563 15.4184C111.733 16.7137 112.317 18.4686 112.317 20.6831ZM105.766 35.9762C105.766 34.263 105.11 33.0303 103.794 32.2781C102.497 31.5261 100.596 31.15 98.0903 31.15H90.5363V41.0528H98.2465C100.587 41.0528 102.425 40.6663 103.762 39.8933C105.099 39.0994 105.766 37.7938 105.766 35.9762ZM104.827 21.3411C104.827 19.9833 104.316 18.9804 103.291 18.3328C102.268 17.6643 100.66 17.3299 98.4647 17.3299H90.5363V25.7285H97.4635C99.8853 25.7285 101.714 25.3839 102.947 24.6943C104.2 23.9841 104.827 22.8663 104.827 21.3411Z" fill="white"/>
<path d="M59.3451 11.123C62.4386 11.123 65.0914 11.7601 67.3056 13.0345C69.5198 14.309 71.2227 16.1163 72.4143 18.4561C73.6038 20.7961 74.2007 23.5956 74.2007 26.8547V30.8033H51.0402C51.1236 34.167 52.0221 36.7575 53.7357 38.5751C55.4707 40.3927 57.8946 41.3015 61.0073 41.3015C63.2216 41.3015 65.2047 41.0927 66.9611 40.6749C68.7368 40.2361 70.5638 39.5988 72.4443 38.7631V44.7486C70.7114 45.5635 68.9465 46.1589 67.1494 46.535C65.3524 46.911 63.2002 47.0991 60.6929 47.0991C57.287 47.0991 54.2898 46.441 51.6991 45.1247C49.1297 43.7876 47.1123 41.8029 45.6511 39.1705C44.2092 36.5382 43.4883 33.2685 43.4883 29.3618C43.4883 25.4759 44.1472 22.1749 45.4629 19.459C46.7786 16.7429 48.627 14.6746 51.0102 13.254C53.3913 11.8333 56.1703 11.123 59.3451 11.123ZM59.3451 16.6697C57.026 16.6697 55.1455 17.4219 53.7058 18.9261C52.2831 20.4305 51.4488 22.6344 51.1985 25.5386H66.9911C66.9718 23.8044 66.6787 22.2688 66.114 20.9317C65.5706 19.5946 64.7362 18.5502 63.6067 17.798C62.5006 17.0458 61.0801 16.6697 59.3451 16.6697Z" fill="white"/>
<path d="M24.4749 6.39278C22.2812 6.39278 20.3175 6.78984 18.5834 7.58375C16.8702 8.37766 15.4182 9.52671 14.2275 11.0309C13.0367 12.5143 12.1277 14.3214 11.5011 16.4524C10.8743 18.5624 10.5609 20.9442 10.5609 23.5974C10.5609 27.1491 11.0623 30.2097 12.065 32.7794C13.068 35.3282 14.5931 37.2922 16.6404 38.671C18.688 40.029 21.2785 40.7081 24.4122 40.7081C26.3552 40.7081 28.2459 40.52 30.0845 40.1439C31.923 39.7678 33.8241 39.2561 35.789 38.6083V45.0013C33.9287 45.7325 32.0484 46.2652 30.1472 46.5996C28.2459 46.9338 26.0523 47.1011 23.5661 47.1011C18.8863 47.1011 15.0004 46.1296 11.9084 44.1866C8.83739 42.2435 6.53911 39.5068 5.01418 35.976C3.5098 32.4453 2.75781 28.3086 2.75781 23.5661C2.75781 20.0981 3.2383 16.9224 4.1993 14.0394C5.16029 11.1562 6.56006 8.67011 8.39861 6.58083C10.2372 4.4708 12.5038 2.85174 15.1989 1.72345C17.9148 0.574412 21.0173 0 24.5064 0C26.8045 0 29.0608 0.260999 31.2753 0.783426C33.5109 1.28467 35.5794 2.00563 37.4813 2.94566L34.8477 9.15061C33.2601 8.39842 31.5991 7.75084 29.8652 7.20766C28.1311 6.66448 26.3344 6.39278 24.4749 6.39278Z" fill="white"/>
</svg>
