<svg width="227" height="77" viewBox="0 0 227 77" fill="none" xmlns="http://www.w3.org/2000/svg">
<g clip-path="url(#clip0_2921_1862)">
<mask id="mask0_2921_1862" style="mask-type:luminance" maskUnits="userSpaceOnUse" x="0" y="0" width="227" height="77">
<path d="M227 0H0V77H227V0Z" fill="white"/>
</mask>
<g mask="url(#mask0_2921_1862)">
<path fill-rule="evenodd" clip-rule="evenodd" d="M32.435 2.74C32.435 2.74 26.392 9.857 21.2 15.207C11.785 24.911 10.28 28 14.969 28C18.791 28 17.936 29.4 5.544 43.432C2.193 47.227 2.704 48.43 7.828 48.807C10.455 49.001 12 49.602 12 50.431C12 51.155 9.188 54.8 5.75 58.531C2.313 62.262 -0.5 65.8 -0.5 66.393C-0.5 68.99 3.474 67.914 8.01 64.089C10.677 61.84 13.138 60 13.479 60C13.821 60 13.965 62.588 13.8 65.75V72H0.5V74.5V76.5L36.821 76.763H72.5V72H59V65.892V59.876L63.582 63.166C66.103 64.976 68.379 66.804 68.641 67.229C68.903 67.653 69.991 68 71.059 68C74.51 68 73.161 64.972 66.51 57.788C62.94 53.932 60.267 50.378 60.569 49.889C60.871 49.4 62.611 49 64.437 49C66.262 49 68.282 48.365 68.926 47.589L69.2771 47.1659C69.7103 46.644 69.5819 45.8596 69.005 45.503C66.665 44.057 55.071 29.694 55.579 28.871C55.876 28.392 56.943 28 57.952 28C62.207 28 61 24.832 54.406 18.69C50.779 15.311 45.565 9.723 42.819 6.273C40.016 2.75 37.039 0 36.029 0C35.04 0 32.435 2.74 32.435 2.74ZM28.642 15.451L21.948 22.902L23.974 23.986C25.088 24.582 26 25.529 26 26.089C26 26.649 23.451 30.345 20.335 34.303C17.22 38.262 14.246 42.055 13.727 42.733L12.783 43.967L15.286 44.919C16.664 45.442 17.987 46.461 18.227 47.182C18.51 48.031 21.284 46.262 26.082 42.172C30.162 38.695 34.258 35.434 35.184 34.925L36.867 34.001L45.122 40.984L53.377 47.968L54.939 46.636C55.797 45.903 57.338 45.005 58.362 44.641L60.223 43.977L55.803 38.739C53.372 35.857 50.084 31.768 48.497 29.651L46.8034 27.3923C46.1437 26.5124 46.3181 25.2649 47.1939 24.5998L48.056 23.945L50.5 22.088L43.527 15.044C39.692 11.17 36.28 8 35.945 8C35.611 8 32.325 11.353 28.642 15.451ZM27.317 47.803L19.134 54.5L19.067 63.25L19 72H25H31V65.614V59.227L43 59.214V65.607V72H48.5H54V63.608V55.215L45.56 48.108C40.917 44.198 36.755 41.024 36.31 41.053C35.864 41.082 31.818 44.12 27.317 47.803Z" fill="white"/>
<path d="M147.934 54.9844C149.984 54.9844 151.532 55.4385 152.577 56.3467C153.632 57.2549 154.159 58.6709 154.159 60.5947V71.5078H151.713L151.054 69.208H150.937C150.478 69.7939 150.004 70.2773 149.516 70.6582C149.027 71.0391 148.461 71.3223 147.816 71.5078C147.182 71.7031 146.405 71.8008 145.487 71.8008C144.521 71.8008 143.656 71.625 142.895 71.2734C142.133 70.9121 141.532 70.3652 141.093 69.6328C140.653 68.9004 140.434 67.9727 140.434 66.8496C140.434 65.1797 141.054 63.9248 142.294 63.085C143.544 62.2451 145.429 61.7812 147.948 61.6934L150.761 61.5908V60.7412C150.761 59.6182 150.497 58.8174 149.97 58.3389C149.452 57.8604 148.72 57.6211 147.772 57.6211C146.962 57.6211 146.176 57.7383 145.414 57.9727C144.652 58.207 143.91 58.4951 143.188 58.8369L142.074 56.4053C142.865 55.9854 143.764 55.6436 144.77 55.3799C145.785 55.1162 146.84 54.9844 147.934 54.9844ZM150.746 63.7588L148.651 63.832C146.933 63.8906 145.727 64.1836 145.033 64.7109C144.34 65.2383 143.993 65.9609 143.993 66.8789C143.993 67.6797 144.232 68.2656 144.711 68.6367C145.189 68.998 145.819 69.1787 146.601 69.1787C147.792 69.1787 148.778 68.8418 149.56 68.168C150.351 67.4844 150.746 66.4834 150.746 65.165V63.7588Z" fill="white"/>
<path d="M125.337 55.293V61.167C125.337 62.0264 125.562 62.666 126.011 63.0859C126.46 63.5059 127.104 63.7158 127.944 63.7158C128.882 63.7158 129.741 63.5889 130.522 63.335C131.313 63.0811 132.109 62.7393 132.91 62.3096V55.293H136.353V71.5088H132.91V64.6533C132.1 65.1318 131.255 65.5322 130.376 65.8545C129.497 66.1768 128.467 66.3379 127.285 66.3379C125.605 66.3379 124.287 65.9033 123.33 65.0342C122.373 64.165 121.895 62.9248 121.895 61.3135V55.293H125.337Z" fill="white"/>
<path d="M110.977 54.9844C113.027 54.9844 114.575 55.4385 115.62 56.3467C116.675 57.2549 117.202 58.6709 117.202 60.5947V71.5078H114.756L114.097 69.208H113.979C113.521 69.7939 113.047 70.2773 112.559 70.6582C112.07 71.0391 111.504 71.3223 110.859 71.5078C110.225 71.7031 109.448 71.8008 108.53 71.8008C107.563 71.8008 106.699 71.625 105.938 71.2734C105.176 70.9121 104.575 70.3652 104.136 69.6328C103.696 68.9004 103.477 67.9727 103.477 66.8496C103.477 65.1797 104.097 63.9248 105.337 63.085C106.587 62.2451 108.472 61.7812 110.991 61.6934L113.804 61.5908V60.7412C113.804 59.6182 113.54 58.8174 113.013 58.3389C112.495 57.8604 111.763 57.6211 110.815 57.6211C110.005 57.6211 109.219 57.7383 108.457 57.9727C107.695 58.207 106.953 58.4951 106.23 58.8369L105.117 56.4053C105.908 55.9854 106.807 55.6436 107.812 55.3799C108.828 55.1162 109.883 54.9844 110.977 54.9844ZM113.789 63.7588L111.694 63.832C109.976 63.8906 108.77 64.1836 108.076 64.7109C107.383 65.2383 107.036 65.9609 107.036 66.8789C107.036 67.6797 107.275 68.2656 107.754 68.6367C108.232 68.998 108.862 69.1787 109.644 69.1787C110.835 69.1787 111.821 68.8418 112.603 68.168C113.394 67.4844 113.789 66.4834 113.789 65.165V63.7588Z" fill="white"/>
<path d="M98.9551 55.293V68.8428H101.299V77.2217H98.1201V71.5088H86.9287V77.2217H83.75V68.8428H85.0684C85.8887 67.6514 86.5723 66.3232 87.1191 64.8584C87.6758 63.3936 88.1055 61.8506 88.4082 60.2295C88.7207 58.5986 88.916 56.9531 88.9941 55.293H98.9551ZM95.542 57.9297H91.9531C91.8359 59.248 91.6357 60.5615 91.3525 61.8701C91.0693 63.1689 90.7031 64.4141 90.2539 65.6055C89.8145 66.7871 89.2871 67.8662 88.6719 68.8428H95.542V57.9297Z" fill="white"/>
<path d="M216.588 45.5088H212.75L217.276 38.8877C216.661 38.6924 216.085 38.4043 215.548 38.0234C215.021 37.6328 214.591 37.125 214.259 36.5C213.927 35.8652 213.761 35.0938 213.761 34.1855C213.761 32.6035 214.327 31.3926 215.46 30.5527C216.593 29.7129 218.072 29.293 219.898 29.293H227.252V45.5088H223.81V39.2393H220.543L216.588 45.5088ZM217.13 34.2148C217.13 35.0352 217.438 35.6602 218.053 36.0898C218.668 36.5098 219.508 36.7197 220.572 36.7197H223.81V31.8857H220.074C219.049 31.8857 218.302 32.1104 217.833 32.5596C217.364 32.999 217.13 33.5508 217.13 34.2148Z" fill="white"/>
<path d="M203.617 28.9844C205.668 28.9844 207.216 29.4385 208.261 30.3467C209.315 31.2549 209.843 32.6709 209.843 34.5947V45.5078H207.396L206.737 43.208H206.62C206.161 43.7939 205.688 44.2773 205.199 44.6582C204.711 45.0391 204.145 45.3223 203.5 45.5078C202.865 45.7031 202.089 45.8008 201.171 45.8008C200.204 45.8008 199.34 45.625 198.578 45.2734C197.816 44.9121 197.216 44.3652 196.776 43.6328C196.337 42.9004 196.117 41.9727 196.117 40.8496C196.117 39.1797 196.737 37.9248 197.978 37.085C199.228 36.2451 201.112 35.7812 203.632 35.6934L206.444 35.5908V34.7412C206.444 33.6182 206.181 32.8174 205.653 32.3389C205.136 31.8604 204.403 31.6211 203.456 31.6211C202.646 31.6211 201.859 31.7383 201.098 31.9727C200.336 32.207 199.594 32.4951 198.871 32.8369L197.758 30.4053C198.549 29.9854 199.447 29.6436 200.453 29.3799C201.469 29.1162 202.523 28.9844 203.617 28.9844ZM206.43 37.7588L204.335 37.832C202.616 37.8906 201.41 38.1836 200.717 38.7109C200.023 39.2383 199.677 39.9609 199.677 40.8789C199.677 41.6797 199.916 42.2656 200.395 42.6367C200.873 42.998 201.503 43.1787 202.284 43.1787C203.476 43.1787 204.462 42.8418 205.243 42.168C206.034 41.4844 206.43 40.4834 206.43 39.165V37.7588Z" fill="white"/>
<path d="M180.996 29.293V35.8115H188.584V29.293H192.041V45.5088H188.584V38.5068H180.996V45.5088H177.539V29.293H180.996Z" fill="white"/>
<path d="M166.867 28.9844C168.791 28.9844 170.334 29.6875 171.496 31.0938C172.668 32.5 173.254 34.5898 173.254 37.3633C173.254 39.1992 172.98 40.7471 172.434 42.0068C171.896 43.2568 171.14 44.2041 170.163 44.8486C169.196 45.4834 168.068 45.8008 166.779 45.8008C165.959 45.8008 165.246 45.6934 164.641 45.4785C164.035 45.2637 163.518 44.9854 163.088 44.6436C162.658 44.292 162.297 43.9111 162.004 43.501H161.799C161.848 43.8916 161.892 44.3262 161.931 44.8047C161.979 45.2734 162.004 45.7031 162.004 46.0938V52.7002H158.547V29.292H161.359L161.843 31.5332H162.004C162.307 31.0742 162.673 30.6494 163.103 30.2588C163.542 29.8682 164.069 29.5605 164.685 29.3359C165.31 29.1016 166.037 28.9844 166.867 28.9844ZM165.944 31.7969C164.997 31.7969 164.235 31.9873 163.659 32.3682C163.093 32.7393 162.678 33.3008 162.414 34.0527C162.16 34.8047 162.023 35.7471 162.004 36.8799V37.3633C162.004 38.5645 162.126 39.585 162.37 40.4248C162.624 41.2549 163.039 41.8896 163.615 42.3291C164.201 42.7588 164.992 42.9736 165.988 42.9736C166.828 42.9736 167.521 42.7441 168.068 42.2852C168.625 41.8262 169.04 41.1719 169.313 40.3223C169.587 39.4727 169.724 38.4717 169.724 37.3193C169.724 35.5713 169.411 34.2139 168.786 33.2471C168.171 32.2803 167.224 31.7969 165.944 31.7969Z" fill="white"/>
<path d="M147.42 28.9844C148.865 28.9844 150.105 29.2822 151.141 29.8779C152.176 30.4736 152.972 31.3184 153.528 32.4121C154.085 33.5059 154.363 34.8145 154.363 36.3379V38.1836H143.538C143.577 39.7559 143.997 40.9668 144.798 41.8164C145.608 42.666 146.741 43.0908 148.196 43.0908C149.231 43.0908 150.159 42.9932 150.979 42.7979C151.81 42.5928 152.664 42.2949 153.543 41.9043V44.7021C152.732 45.083 151.907 45.3613 151.067 45.5371C150.228 45.7129 149.222 45.8008 148.05 45.8008C146.458 45.8008 145.057 45.4932 143.846 44.8779C142.645 44.2529 141.702 43.3252 141.019 42.0947C140.345 40.8643 140.008 39.3359 140.008 37.5098C140.008 35.6934 140.315 34.1504 140.931 32.8809C141.546 31.6113 142.41 30.6445 143.523 29.9805C144.637 29.3164 145.936 28.9844 147.42 28.9844ZM147.42 31.5771C146.336 31.5771 145.457 31.9287 144.783 32.6318C144.119 33.335 143.729 34.3652 143.611 35.7227H150.994C150.984 34.9121 150.848 34.1943 150.584 33.5693C150.33 32.9443 149.939 32.4561 149.412 32.1045C148.895 31.7529 148.23 31.5771 147.42 31.5771Z" fill="white"/>
<path d="M136.251 33.4531C136.251 34.3906 135.963 35.1572 135.387 35.7529C134.82 36.3389 134.039 36.7246 133.043 36.9102V37.0273C134.107 37.1641 134.996 37.54 135.709 38.1553C136.422 38.7705 136.778 39.625 136.778 40.7188C136.778 41.6465 136.544 42.4717 136.075 43.1943C135.616 43.9072 134.884 44.4736 133.878 44.8936C132.882 45.3037 131.578 45.5088 129.967 45.5088H122.613V29.293H129.938C131.148 29.293 132.228 29.4248 133.175 29.6885C134.132 29.9521 134.884 30.3867 135.431 30.9922C135.978 31.5977 136.251 32.418 136.251 33.4531ZM133.189 40.6016C133.189 39.8008 132.882 39.2246 132.267 38.873C131.661 38.5215 130.772 38.3457 129.601 38.3457H126.07V42.9746H129.674C130.768 42.9746 131.627 42.7939 132.252 42.4326C132.877 42.0615 133.189 41.4512 133.189 40.6016ZM132.75 33.7607C132.75 33.126 132.511 32.6572 132.032 32.3545C131.554 32.042 130.802 31.8857 129.776 31.8857H126.07V35.8115H129.308C130.44 35.8115 131.295 35.6504 131.871 35.3281C132.457 34.9961 132.75 34.4736 132.75 33.7607Z" fill="white"/>
<path d="M111.49 28.9844C112.936 28.9844 114.176 29.2822 115.211 29.8779C116.246 30.4736 117.042 31.3184 117.599 32.4121C118.155 33.5059 118.434 34.8145 118.434 36.3379V38.1836H107.608C107.647 39.7559 108.067 40.9668 108.868 41.8164C109.679 42.666 110.812 43.0908 112.267 43.0908C113.302 43.0908 114.229 42.9932 115.05 42.7979C115.88 42.5928 116.734 42.2949 117.613 41.9043V44.7021C116.803 45.083 115.978 45.3613 115.138 45.5371C114.298 45.7129 113.292 45.8008 112.12 45.8008C110.528 45.8008 109.127 45.4932 107.916 44.8779C106.715 44.2529 105.772 43.3252 105.089 42.0947C104.415 40.8643 104.078 39.3359 104.078 37.5098C104.078 35.6934 104.386 34.1504 105.001 32.8809C105.616 31.6113 106.48 30.6445 107.594 29.9805C108.707 29.3164 110.006 28.9844 111.49 28.9844ZM111.49 31.5771C110.406 31.5771 109.527 31.9287 108.854 32.6318C108.189 33.335 107.799 34.3652 107.682 35.7227H115.064C115.055 34.9121 114.918 34.1943 114.654 33.5693C114.4 32.9443 114.01 32.4561 113.482 32.1045C112.965 31.7529 112.301 31.5771 111.49 31.5771Z" fill="white"/>
<path d="M95.1904 26.7734C94.165 26.7734 93.2471 26.959 92.4365 27.3301C91.6357 27.7012 90.957 28.2383 90.4004 28.9414C89.8438 29.6348 89.4189 30.4795 89.126 31.4756C88.833 32.4619 88.6865 33.5752 88.6865 34.8154C88.6865 36.4756 88.9209 37.9062 89.3896 39.1074C89.8584 40.2988 90.5713 41.2168 91.5283 41.8613C92.4854 42.4961 93.6963 42.8135 95.1611 42.8135C96.0693 42.8135 96.9531 42.7256 97.8125 42.5498C98.6719 42.374 99.5605 42.1348 100.479 41.832V44.8203C99.6094 45.1621 98.7305 45.4111 97.8418 45.5674C96.9531 45.7236 95.9277 45.8018 94.7656 45.8018C92.5781 45.8018 90.7617 45.3477 89.3164 44.4395C87.8809 43.5312 86.8066 42.252 86.0938 40.6016C85.3906 38.9512 85.0391 37.0176 85.0391 34.8008C85.0391 33.1797 85.2637 31.6953 85.7129 30.3477C86.1621 29 86.8164 27.8379 87.6758 26.8613C88.5352 25.875 89.5947 25.1182 90.8545 24.5908C92.124 24.0537 93.5742 23.7852 95.2051 23.7852C96.2793 23.7852 97.334 23.9072 98.3691 24.1514C99.4141 24.3857 100.381 24.7227 101.27 25.1621L100.039 28.0625C99.2969 27.7109 98.5205 27.4082 97.71 27.1543C96.8994 26.9004 96.0596 26.7734 95.1904 26.7734Z" fill="white"/>
</g>
</g>
<defs>
<clipPath id="clip0_2921_1862">
<rect width="227" height="77" fill="white"/>
</clipPath>
</defs>
</svg>
