<svg width="140" height="48" viewBox="0 0 140 48" fill="none" xmlns="http://www.w3.org/2000/svg">
<g clip-path="url(#clip0_2921_1669)">
<path d="M42.2524 9.32957C42.4648 9.47069 42.6735 9.62266 42.8823 9.7674L43.7424 9.12693C44.3074 8.7289 44.8761 8.33449 45.4483 7.95094C44.9076 7.64744 44.3925 7.30013 43.908 6.91244L43.8036 6.81836C43.0513 7.54714 42.2439 8.21615 41.3887 8.81937C41.6838 8.98582 41.9681 9.15588 42.2524 9.32957Z" fill="url(#paint0_linear_2921_1669)"/>
<path d="M50.9895 1.19887C50.1617 0.363011 49.424 -0.0241638 48.7474 0.00116543C47.4445 0.0518238 46.3432 1.44855 45.5551 2.35316C44.1659 3.92719 42.953 5.5555 41.0168 6.48182C40.1252 6.89338 39.2065 7.24278 38.2671 7.52756C38.9408 7.69029 39.5957 7.92312 40.2214 8.2223C41.3086 7.60752 42.4465 7.08816 43.6224 6.66998C43.2182 6.33517 42.8556 5.95246 42.5427 5.53017C43.7811 5.77381 44.9714 6.21997 46.0661 6.8509L46.6348 7.1838C46.8399 7.05354 47.0414 6.91604 47.2502 6.78577C48.4418 6.03086 49.6773 5.34817 50.9499 4.74134C49.9571 5.75573 48.9056 6.71026 47.8008 7.59993L47.5597 7.78809L47.6317 7.83513C48.1597 8.19732 48.6483 8.61455 49.0893 9.07987C48.4398 9.05918 47.7975 8.93711 47.1854 8.71803C47.0054 8.66013 46.8255 8.58415 46.6527 8.51178C45.933 9.07626 45.2012 9.62747 44.4574 10.1654C44.2738 10.2993 44.0975 10.4259 43.8959 10.5562C43.9391 10.5924 43.9895 10.625 44.0327 10.6648C44.6188 11.1516 45.1401 11.7122 45.5839 12.3329C44.6723 12.0471 43.792 11.6688 42.9566 11.2039C42.0173 11.8408 41.0563 12.445 40.0774 13.0131C40.6092 13.5796 41.0653 14.2134 41.4342 14.8984C40.7381 14.5763 40.07 14.1962 39.4368 13.7622C39.3324 13.6934 39.2353 13.6174 39.1345 13.5487C38.5155 13.9105 37.8893 14.2181 37.245 14.5293C37.6949 14.0661 38.1592 13.6247 38.6306 13.1941C38.2923 12.9444 37.9612 12.6911 37.6301 12.4269C37.299 12.1628 36.9931 11.8806 36.68 11.5983C35.9092 11.9775 35.1102 12.2957 34.2903 12.55C34.8302 11.9851 35.4113 11.4613 36.0286 10.9832C35.4562 10.4228 34.9358 9.81115 34.4738 9.15586C35.2065 9.40113 35.9082 9.73143 36.5648 10.1401C36.6692 10.2016 36.7628 10.274 36.8671 10.3391C37.5222 9.85423 38.1952 9.40192 38.879 8.9677L39.354 8.6927C38.9426 8.33024 38.5577 7.93843 38.2024 7.52032C36.8312 7.96177 35.4384 8.34895 34.1103 8.87C32.5836 9.50414 31.1345 10.3128 29.7916 11.2799C25.8303 14.0758 23.6061 18.7436 23.1191 25.2833C23.5183 24.0477 24.1125 22.8846 24.879 21.8386C25.6148 20.8337 26.5039 19.9519 27.5134 19.226C28.7132 18.3804 30.054 17.7578 31.4723 17.3879C34.4954 16.5628 37.6805 16.3855 40.6353 15.3507C43.4101 14.3773 45.9042 12.7526 48.1715 10.8963C50.4389 9.04007 51.8533 6.60123 51.9684 4.28542C52.0224 3.0081 51.6733 1.87553 50.9895 1.19887Z" fill="url(#paint1_linear_2921_1669)"/>
<path d="M37.8535 11.0342C38.0478 11.1789 38.2458 11.3237 38.4329 11.472C38.7928 11.7868 39.1527 12.1125 39.5126 12.4526C40.2732 11.7989 41.0482 11.1669 41.8376 10.5565L41.5712 10.3937C41.161 10.1223 40.7579 9.83285 40.362 9.53613C40.0921 9.71706 39.8257 9.89798 39.5522 10.068C38.9932 10.4058 38.4269 10.7278 37.8535 11.0342Z" fill="url(#paint2_linear_2921_1669)"/>
<path d="M11.8082 30.2803H3.8329L5.82674 29.3613V25.4027H20.0031V20.127H0V47.4572H11.8082C17.1635 47.4572 22.2165 45.6479 22.2165 38.8633C22.2165 32.0787 17.1635 30.2803 11.8082 30.2803ZM11.8442 42.3009H3.8329L5.03856 41.7545C6.62931 39.9452 6.62931 37.7742 5.03856 35.9649L3.8401 35.4186H11.8442C14.1332 35.4186 16.2745 35.9215 16.2745 38.8489C16.2745 41.7762 14.1332 42.3009 11.8442 42.3009Z" fill="#8A8989"/>
<path d="M39.1397 19.5811C29.5124 19.5811 24.6934 26.3801 24.6934 33.7907C24.6934 41.2013 29.5124 48.0004 39.1397 48.0004C48.7669 48.0004 53.586 41.2013 53.586 33.7907C53.586 26.3801 48.7705 19.5811 39.1397 19.5811ZM40.0214 42.5402L39.1469 44.476L38.2759 42.5402C33.1726 42.1458 30.6317 38.3572 30.6317 33.7907C30.6317 29.2242 33.1726 25.4393 38.2544 25.0413L39.1253 23.1091L39.9999 25.0413C45.0384 25.4393 47.5793 29.2496 47.5793 33.7907C47.5793 38.3319 45.06 42.1458 40.0214 42.5402Z" fill="#8A8989"/>
<path d="M69.6864 30.2803H61.5635L63.7013 29.3106V25.4027H77.8813V20.127H57.8926V47.4572H69.6864C75.0489 47.4572 80.0946 45.6479 80.0946 38.8633C80.0946 32.0787 75.0489 30.2803 69.6864 30.2803ZM69.7296 42.3009H61.5635L63.0211 41.6351C64.4607 39.8946 64.4607 37.8321 63.0211 36.0916L61.5635 35.433H69.7296C72.0257 35.433 74.1599 35.936 74.1599 38.8633C74.1599 41.7907 72.0257 42.3009 69.7296 42.3009Z" fill="#8A8989"/>
<path d="M94.3394 20.127H84.0859V47.4572H89.9199V39.4423L87.7605 38.4581H94.3286C100.901 38.4581 106.058 36.3485 106.058 29.2889C106.058 22.2293 100.912 20.127 94.3394 20.127ZM94.6093 33.3271H87.7713L89.1677 32.6794C90.7584 30.5083 90.7584 28.0839 89.1677 25.931L87.7713 25.2833H94.6093C97.6109 25.2833 100.131 26.0648 100.131 29.2997C100.131 32.5346 97.6109 33.3271 94.6093 33.3271Z" fill="#8A8989"/>
<path d="M120.237 29.1152L113.669 29.0935L115.828 28.1057V20.127H109.984V47.4572H120.237C126.798 47.4572 131.963 45.3476 131.963 38.2808C131.963 31.2139 126.798 29.1441 120.237 29.1152ZM120.503 42.3009H113.665L115.062 41.6495C116.653 39.5002 116.653 37.065 115.062 34.9047L113.665 34.2534H120.503C123.498 34.2534 126.024 35.082 126.024 38.2808C126.024 41.4795 123.498 42.3009 120.503 42.3009Z" fill="#8A8989"/>
<path d="M139.999 20.127H134.176V47.4535H139.999V20.127Z" fill="#8A8989"/>
<g clip-path="url(#clip1_2921_1669)">
<path d="M42.2524 9.32957C42.4648 9.47069 42.6735 9.62266 42.8823 9.7674L43.7424 9.12693C44.3074 8.7289 44.8761 8.33449 45.4483 7.95094C44.9076 7.64744 44.3925 7.30013 43.908 6.91244L43.8036 6.81836C43.0513 7.54714 42.2439 8.21615 41.3887 8.81937C41.6838 8.98582 41.9681 9.15588 42.2524 9.32957Z" fill="url(#paint3_linear_2921_1669)"/>
<path d="M50.9895 1.19887C50.1617 0.363011 49.424 -0.0241638 48.7474 0.00116543C47.4445 0.0518238 46.3432 1.44855 45.5551 2.35316C44.1659 3.92719 42.953 5.5555 41.0168 6.48182C40.1252 6.89338 39.2065 7.24278 38.2671 7.52756C38.9408 7.69029 39.5957 7.92312 40.2214 8.2223C41.3086 7.60752 42.4465 7.08816 43.6224 6.66998C43.2182 6.33517 42.8556 5.95246 42.5427 5.53017C43.7811 5.77381 44.9714 6.21997 46.0661 6.8509L46.6348 7.1838C46.8399 7.05354 47.0414 6.91604 47.2502 6.78577C48.4418 6.03086 49.6773 5.34817 50.9499 4.74134C49.9571 5.75573 48.9056 6.71026 47.8008 7.59993L47.5597 7.78809L47.6317 7.83513C48.1597 8.19732 48.6483 8.61455 49.0893 9.07987C48.4398 9.05918 47.7975 8.93711 47.1854 8.71803C47.0054 8.66013 46.8255 8.58415 46.6527 8.51178C45.933 9.07626 45.2012 9.62747 44.4574 10.1654C44.2738 10.2993 44.0975 10.4259 43.8959 10.5562C43.9391 10.5924 43.9895 10.625 44.0327 10.6648C44.6188 11.1516 45.1401 11.7122 45.5839 12.3329C44.6723 12.0471 43.792 11.6688 42.9566 11.2039C42.0173 11.8408 41.0563 12.445 40.0774 13.0131C40.6092 13.5796 41.0653 14.2134 41.4342 14.8984C40.7381 14.5763 40.07 14.1962 39.4368 13.7622C39.3324 13.6934 39.2353 13.6174 39.1345 13.5487C38.5155 13.9105 37.8893 14.2181 37.245 14.5293C37.6949 14.0661 38.1592 13.6247 38.6306 13.1941C38.2923 12.9444 37.9612 12.6911 37.6301 12.4269C37.299 12.1628 36.9931 11.8806 36.68 11.5983C35.9092 11.9775 35.1102 12.2957 34.2903 12.55C34.8302 11.9851 35.4113 11.4613 36.0286 10.9832C35.4562 10.4228 34.9358 9.81115 34.4738 9.15586C35.2065 9.40113 35.9082 9.73143 36.5648 10.1401C36.6692 10.2016 36.7628 10.274 36.8671 10.3391C37.5222 9.85423 38.1952 9.40192 38.879 8.9677L39.354 8.6927C38.9426 8.33024 38.5577 7.93843 38.2024 7.52032C36.8312 7.96177 35.4384 8.34895 34.1103 8.87C32.5836 9.50414 31.1345 10.3128 29.7916 11.2799C25.8303 14.0758 23.6061 18.7436 23.1191 25.2833C23.5183 24.0477 24.1125 22.8846 24.879 21.8386C25.6148 20.8337 26.5039 19.9519 27.5134 19.226C28.7132 18.3804 30.054 17.7578 31.4723 17.3879C34.4954 16.5628 37.6805 16.3855 40.6353 15.3507C43.4101 14.3773 45.9042 12.7526 48.1715 10.8963C50.4389 9.04007 51.8533 6.60123 51.9684 4.28542C52.0224 3.0081 51.6733 1.87553 50.9895 1.19887Z" fill="url(#paint4_linear_2921_1669)"/>
<path d="M37.8535 11.0342C38.0478 11.1789 38.2458 11.3237 38.4329 11.472C38.7928 11.7868 39.1527 12.1125 39.5126 12.4526C40.2732 11.7989 41.0482 11.1669 41.8376 10.5565L41.5712 10.3937C41.161 10.1223 40.7579 9.83285 40.362 9.53613C40.0921 9.71706 39.8257 9.89798 39.5522 10.068C38.9932 10.4058 38.4269 10.7278 37.8535 11.0342Z" fill="url(#paint5_linear_2921_1669)"/>
<path d="M11.8082 30.2803H3.8329L5.82674 29.3613V25.4027H20.0031V20.127H0V47.4572H11.8082C17.1635 47.4572 22.2165 45.6479 22.2165 38.8633C22.2165 32.0787 17.1635 30.2803 11.8082 30.2803ZM11.8442 42.3009H3.8329L5.03856 41.7545C6.62931 39.9452 6.62931 37.7742 5.03856 35.9649L3.8401 35.4186H11.8442C14.1332 35.4186 16.2745 35.9215 16.2745 38.8489C16.2745 41.7762 14.1332 42.3009 11.8442 42.3009Z" fill="#8A8989"/>
<path d="M39.1397 19.5811C29.5124 19.5811 24.6934 26.3801 24.6934 33.7907C24.6934 41.2013 29.5124 48.0004 39.1397 48.0004C48.7669 48.0004 53.586 41.2013 53.586 33.7907C53.586 26.3801 48.7705 19.5811 39.1397 19.5811ZM40.0214 42.5402L39.1469 44.476L38.2759 42.5402C33.1726 42.1458 30.6317 38.3572 30.6317 33.7907C30.6317 29.2242 33.1726 25.4393 38.2544 25.0413L39.1253 23.1091L39.9999 25.0413C45.0384 25.4393 47.5793 29.2496 47.5793 33.7907C47.5793 38.3319 45.06 42.1458 40.0214 42.5402Z" fill="#8A8989"/>
<path d="M69.6864 30.2803H61.5635L63.7013 29.3106V25.4027H77.8813V20.127H57.8926V47.4572H69.6864C75.0489 47.4572 80.0946 45.6479 80.0946 38.8633C80.0946 32.0787 75.0489 30.2803 69.6864 30.2803ZM69.7296 42.3009H61.5635L63.0211 41.6351C64.4607 39.8946 64.4607 37.8321 63.0211 36.0916L61.5635 35.433H69.7296C72.0257 35.433 74.1599 35.936 74.1599 38.8633C74.1599 41.7907 72.0257 42.3009 69.7296 42.3009Z" fill="#8A8989"/>
<path d="M94.3394 20.127H84.0859V47.4572H89.9199V39.4423L87.7605 38.4581H94.3286C100.901 38.4581 106.058 36.3485 106.058 29.2889C106.058 22.2293 100.912 20.127 94.3394 20.127ZM94.6093 33.3271H87.7713L89.1677 32.6794C90.7584 30.5083 90.7584 28.0839 89.1677 25.931L87.7713 25.2833H94.6093C97.6109 25.2833 100.131 26.0648 100.131 29.2997C100.131 32.5346 97.6109 33.3271 94.6093 33.3271Z" fill="#8A8989"/>
<path d="M120.237 29.1152L113.669 29.0935L115.828 28.1057V20.127H109.984V47.4572H120.237C126.798 47.4572 131.963 45.3476 131.963 38.2808C131.963 31.2139 126.798 29.1441 120.237 29.1152ZM120.503 42.3009H113.665L115.062 41.6495C116.653 39.5002 116.653 37.065 115.062 34.9047L113.665 34.2534H120.503C123.498 34.2534 126.024 35.082 126.024 38.2808C126.024 41.4795 123.498 42.3009 120.503 42.3009Z" fill="#8A8989"/>
<path d="M139.999 20.127H134.176V47.4535H139.999V20.127Z" fill="#8A8989"/>
</g>
</g>
<defs>
<linearGradient id="paint0_linear_2921_1669" x1="41.3887" y1="6.81836" x2="45.4483" y2="6.81836" gradientUnits="userSpaceOnUse">
<stop stop-color="#FF9C45"/>
<stop offset="1" stop-color="#FF5D18"/>
</linearGradient>
<linearGradient id="paint1_linear_2921_1669" x1="23.1191" y1="0" x2="51.9739" y2="0" gradientUnits="userSpaceOnUse">
<stop stop-color="#FF9C45"/>
<stop offset="1" stop-color="#FF5D18"/>
</linearGradient>
<linearGradient id="paint2_linear_2921_1669" x1="37.8535" y1="9.53613" x2="41.8376" y2="9.53613" gradientUnits="userSpaceOnUse">
<stop stop-color="#FF9C45"/>
<stop offset="1" stop-color="#FF5D18"/>
</linearGradient>
<linearGradient id="paint3_linear_2921_1669" x1="41.3887" y1="6.81836" x2="45.4483" y2="6.81836" gradientUnits="userSpaceOnUse">
<stop stop-color="#FF9C45"/>
<stop offset="1" stop-color="#FF5D18"/>
</linearGradient>
<linearGradient id="paint4_linear_2921_1669" x1="23.1191" y1="0" x2="51.9739" y2="0" gradientUnits="userSpaceOnUse">
<stop stop-color="#FF9C45"/>
<stop offset="1" stop-color="#FF5D18"/>
</linearGradient>
<linearGradient id="paint5_linear_2921_1669" x1="37.8535" y1="9.53613" x2="41.8376" y2="9.53613" gradientUnits="userSpaceOnUse">
<stop stop-color="#FF9C45"/>
<stop offset="1" stop-color="#FF5D18"/>
</linearGradient>
<clipPath id="clip0_2921_1669">
<rect width="140" height="48" fill="white"/>
</clipPath>
<clipPath id="clip1_2921_1669">
<rect width="140" height="48" fill="white"/>
</clipPath>
</defs>
</svg>
