<svg width="657" height="685" viewBox="0 0 657 685" fill="none" xmlns="http://www.w3.org/2000/svg">
<path opacity="0.05" fill-rule="evenodd" clip-rule="evenodd" d="M294.811 24.4506C294.811 24.4506 240.718 87.9596 194.243 135.701C109.967 222.295 96.495 249.86 138.468 249.86C172.68 249.86 165.026 262.353 54.1017 387.568C24.1059 421.433 28.68 432.168 74.5464 435.533C98.0615 437.264 111.891 442.627 111.891 450.025C111.891 456.485 86.7202 489.012 55.9456 522.305C25.18 555.599 0 587.171 0 592.463C0 615.637 35.5725 606.035 76.1756 571.903C100.049 551.833 122.078 535.414 125.13 535.414C128.192 535.414 129.481 558.508 128.004 586.725V642.497H8.9513V664.806V682.653L334.071 685H653.445V642.497H532.602V587.992V534.308L573.617 563.666C596.183 579.818 616.557 596.13 618.902 599.923C621.247 603.706 630.986 606.803 640.546 606.803C671.437 606.803 659.362 579.782 599.827 515.675C567.871 481.266 543.944 449.552 546.647 445.188C549.35 440.824 564.925 437.255 581.271 437.255C597.607 437.255 615.688 431.588 621.453 424.664L624.596 420.888C628.474 416.231 627.324 409.231 622.16 406.049C601.214 393.146 497.433 264.976 501.98 257.632C504.639 253.358 514.19 249.86 523.221 249.86C561.309 249.86 550.505 221.59 491.48 166.782C459.014 136.629 412.342 86.7639 387.761 55.9776C362.671 24.5398 336.023 0 326.982 0C318.129 0 294.811 24.4506 294.811 24.4506ZM260.859 137.878L200.939 204.368L219.074 214.041C229.046 219.359 237.209 227.81 237.209 232.807C237.209 237.804 214.393 270.786 186.5 306.105C158.617 341.434 131.996 375.281 127.35 381.331L118.9 392.343L141.305 400.838C153.64 405.505 165.483 414.598 167.631 421.032C170.164 428.608 194.995 412.822 237.943 376.325C274.465 345.298 311.129 316.198 319.418 311.656L334.483 303.41L408.376 365.724L482.269 428.046L496.251 416.16C503.931 409.619 517.725 401.605 526.891 398.357L543.55 392.432L503.985 345.69C482.224 319.972 452.793 283.484 438.587 264.593L423.427 244.437C417.522 236.585 419.083 225.453 426.922 219.518L434.639 213.675L456.516 197.104L394.099 134.246C359.771 99.6763 329.229 71.3886 326.23 71.3886C323.24 71.3886 293.826 101.309 260.859 137.878ZM248.998 426.573L175.75 486.335L175.15 564.416L174.55 642.497H228.258H281.966V585.511V528.516L389.382 528.4V585.449V642.497H438.614H487.846V567.61V492.715L412.297 429.295C370.736 394.404 333.481 366.081 329.497 366.339C325.505 366.598 289.288 393.708 248.998 426.573Z" fill="white"/>
</svg>
