<svg width="351" height="365" viewBox="0 0 351 365" fill="none" xmlns="http://www.w3.org/2000/svg">
<path opacity="0.05" fill-rule="evenodd" clip-rule="evenodd" d="M157.502 13.0284C157.502 13.0284 128.603 46.869 103.774 72.3077C58.7494 118.449 51.5521 133.137 73.9759 133.137C92.2535 133.137 88.1647 139.794 28.9036 206.515C12.8785 224.559 15.3222 230.28 39.8262 232.072C52.389 232.995 59.7775 235.852 59.7775 239.794C59.7775 243.237 46.33 260.568 29.8888 278.309C13.4523 296.049 0 312.872 0 315.692C0 328.04 19.0045 322.924 40.6965 304.736C53.4507 294.043 65.2197 285.294 66.8504 285.294C68.4859 285.294 69.1746 297.599 68.3855 312.634V342.352H4.7822V354.24V363.749L178.477 365H349.101V342.352H284.541V313.31V284.704L306.453 300.348C318.509 308.954 329.393 317.646 330.646 319.667C331.899 321.683 337.102 323.333 342.21 323.333C358.713 323.333 352.262 308.935 320.455 274.776C303.383 256.441 290.6 239.542 292.044 237.217C293.488 234.892 301.81 232.99 310.542 232.99C319.269 232.99 328.929 229.97 332.009 226.281L333.688 224.269C335.76 221.787 335.146 218.058 332.387 216.362C321.197 209.486 265.752 141.192 268.181 137.279C269.601 135.001 274.704 133.137 279.529 133.137C299.878 133.137 294.105 118.074 262.572 88.869C245.227 72.8022 220.292 46.2318 207.16 29.8275C193.756 13.076 179.519 0 174.689 0C169.959 0 157.502 13.0284 157.502 13.0284ZM139.363 73.4679L107.351 108.897L117.04 114.051C122.367 116.885 126.728 121.388 126.728 124.05C126.728 126.713 114.539 144.287 99.6372 163.107C84.7406 181.932 70.5183 199.967 68.0364 203.191L63.522 209.058L75.4918 213.585C82.0817 216.072 88.4086 220.917 89.5563 224.345C90.9097 228.382 104.175 219.971 127.12 200.523C146.632 183.991 166.22 168.485 170.648 166.065L178.697 161.671L218.174 194.875L257.651 228.083L265.12 221.749C269.224 218.264 276.593 213.994 281.49 212.263L290.39 209.106L269.252 184.2C257.627 170.496 241.903 151.053 234.314 140.987L226.214 130.247C223.06 126.064 223.894 120.132 228.082 116.969L232.205 113.856L243.892 105.026L210.546 71.5326C192.206 53.1122 175.889 38.0392 174.287 38.0392C172.69 38.0392 156.976 53.9823 139.363 73.4679ZM133.027 227.298L93.8938 259.142L93.5733 300.747L93.2529 342.352H121.946H150.639V311.988V281.618L208.026 281.556V311.954V342.352H234.328H260.63V302.449V262.542L220.268 228.748C198.064 210.157 178.161 195.065 176.033 195.203C173.9 195.341 154.551 209.786 133.027 227.298Z" fill="#224737"/>
</svg>
